<svg xmlns="http://www.w3.org/2000/svg" viewBox="0 0 70.74 67.4">
  <defs>
    <style>
      .cls-1 {
        fill: #27a997;
      }
    </style>
  </defs>
  <title>app-switcher</title>
  <g id="Layer_2" data-name="Layer 2">
    <g id="Layer_1-2" data-name="Layer 1">
      <g>
        <path class="cls-1" d="M70.67,34.67c.79,7.28-6.18,9.57-11,8.18-1.95-.56-3.66-2.82-4.87-4.7a5.1,5.1,0,0,1-.14-4.43,22.22,22.22,0,0,1,4.51-5,4.79,4.79,0,0,1,6.34-.58c1.07.67,2.77.75,3.39,1.65C69.84,31.18,70.11,33,70.67,34.67Z"/>
        <path class="cls-1" d="M7.71,15.75c-2.88,0-7.33-3.5-7.53-5.58A8.76,8.76,0,0,1,3.37,2.28C4.63,1.21,6.58-.09,7.91.19a13.89,13.89,0,0,1,6.9,3.44c1.16,1.2,1.1,3.91,1,5.92C15.72,12.42,12.6,16.28,7.71,15.75Z"/>
        <path class="cls-1" d="M62.24,15.75c-2.77,0-7.33-3.59-7.51-5.6a8.82,8.82,0,0,1,3.2-7.89A8.63,8.63,0,0,1,62.55.12c4.38-.25,7.83,4.15,7.84,9.42C70.39,12.28,66.93,16.36,62.24,15.75Z"/>
        <path class="cls-1" d="M35,15.75c-2.7,0-7.41-3.64-7.62-5.53a8.22,8.22,0,0,1,3.3-7.78C32,1.39,33.63.1,35.17,0,39.5-.23,43,4.26,43.07,9.43,43.13,12.21,39.5,16.39,35,15.75Z"/>
        <path class="cls-1" d="M62.36,67.4c-2.87,0-7.42-3.53-7.62-5.49a8.85,8.85,0,0,1,3.36-8.08,7.74,7.74,0,0,1,4.38-2.06c4.42,0,7.91,4.37,7.9,9.32C70.38,64.65,66.81,67.46,62.36,67.4Z"/>
        <path class="cls-1" d="M7.51,67.25C4.72,67.21,0,63.89,0,62c0-4.19.1-4.8,3.1-7.33,1.28-1.08,3.06-2.19,4.61-2.18,4.78,0,8,3.71,8,8.52C15.76,64.35,11.88,67.31,7.51,67.25Z"/>
        <path class="cls-1" d="M34.95,42.81c-3-.06-6.85-3-6.8-5.27.1-5.12,3.39-9.8,6.92-9.86,4.07-.06,8.09,4.62,7.79,9.27C42.69,39.56,39.38,43.4,34.95,42.81Z"/>
        <path class="cls-1" d="M7.74,42.81C4.31,42.74,1.19,40,1,37.34S.67,32,3.15,30.27c1.47-1,3.07-2.36,4.73-2.56,3.38-.4,7.67,5,7.64,9.08C15.51,39.31,12,43.47,7.74,42.81Z"/>
        <path class="cls-1" d="M35.81,67.26c-4.27-.12-7.29-2.53-7.38-5.61-.07-2.57-.55-5.21,2.1-6.83,1.53-.93,3.21-2.2,4.85-2.24,4-.1,7.73,4.44,7.47,8.7C42.69,63.92,39.34,67.47,35.81,67.26Z"/>
      </g>
    </g>
  </g>
</svg>
