<svg xmlns="http://www.w3.org/2000/svg" viewBox="0 0 508.3 191.41">
  <defs>
    <style>
      .cls-1 {
        fill: #1aa175;
      }

      .cls-2 {
        fill: #8aba35;
      }

      .cls-3 {
        font-size: 63.31px;
        letter-spacing: -0.01em;
      }

      .cls-3, .cls-6 {
        fill: #fff;
        font-family: Varah-Bold, Varah;
        font-weight: 700;
      }

      .cls-4 {
        letter-spacing: 0em;
      }

      .cls-5 {
        letter-spacing: -0.09em;
      }

      .cls-6 {
        font-size: 40.61px;
      }
    </style>
  </defs>
  <title>logo</title>
  <g id="Layer_2" data-name="Layer 2">
    <g id="Layer_1-2" data-name="Layer 1">
      <g id="User">
        <rect class="cls-1" x="261.3" y="102.41" width="247" height="89" rx="2.69" ry="2.69"/>
        <path class="cls-1" d="M482.36,91.05h0c0,.54-.05,1.08-.08,1.62C482.3,92.14,482.33,91.6,482.36,91.05Z"/>
        <path class="cls-2" d="M217.52,81.07c-1.21-3.15-2.34-6.33-3.51-9.49-.05-.14-.26-.23-.32-.37-1.38-3-2.76-5.95-4.09-8.94-.16-.35,0-.83-.08-1.24-.13-.64-.15-1.5-.56-1.86-2.94-2.54-1.42-7.21-4.64-9.6-.27-.2,0-1-.22-1.43-1-2.37-2-4.75-3.14-7.06-.17-.34-1-.44-1.57-.48-1-.07-2,0-3,0h-1.5c-3.67,0-5.43,1.66-6,5.34A14,14,0,0,1,187.59,49c-.51,1.19-1.05,2.38-1.51,3.59-1.14,3-2.24,6.11-3.36,9.17,0,.07-.12.12-.15.19-.66,1.57-1.34,3.14-2,4.73-.24.6-.19,1.47-.61,1.81a5.68,5.68,0,0,0-2,4.84c0,.79-.79,1.57-1.19,2.38s-.84,1.77-1.23,2.67c-.68,1.54-1.44,3.05-2,4.64A8.33,8.33,0,0,0,173,86.8c.07.43,1.8.74,2.8.85,1.32.14,2.66,0,4,0,1.78.05,2.95-.51,2.81-2.54-.25-3.59,2.79-5.82,3.77-8.92.16-.49,1.36-.91,2.08-.92q6.62-.13,13.23,0a6.52,6.52,0,0,1,5.87,4.7c.45,2,1.64,3.86,2.31,5.84,1.11,3.27,3.78,1.41,5.74,1.85a8.23,8.23,0,0,0,2.24,0c2.16-.12,2.55-1,1.42-2.89A24,24,0,0,1,217.52,81.07Z"/>
        <path class="cls-2" d="M108.41,81.49c-1.17-3.23-2.25-6.5-3.39-9.74-.13-.38-.51-.67-.66-1-.52-1.28-1-2.56-1.46-3.87a16.65,16.65,0,0,0-.42-1.91c-1.44-3-3.09-5.83-4.41-8.84A118.85,118.85,0,0,1,93,43.25c-.84-2.77-2.38-3.22-4.76-3-.91.09-1.83,0-2.75,0-3.93,0-5.88,1.79-6.27,5.67a6.4,6.4,0,0,1-.6,1.84c-.68,1.55-1.48,3.05-2.09,4.63-1.07,2.78-2,5.59-3.07,8.39-.11.29-.47.49-.61.78a33.24,33.24,0,0,0-1.54,3.3C70.17,68,69.11,71.15,68,74.28c-.08.22-.36.36-.47.57C67,75.93,66.46,77,66,78.11a30.83,30.83,0,0,0-1.79,4.25,12.41,12.41,0,0,0-.58,4.71c.05.42,2.11.65,3.27.87a10.69,10.69,0,0,0,2,0c4.14,0,4.08-.32,5.08-4.4.6-2.46,2.27-4.68,3.57-6.94.21-.37,1-.57,1.55-.57,4.58,0,9.16-.14,13.73,0,3,.11,4.33,2,5.13,4.93a16.33,16.33,0,0,0,3.23,6.26c.79.91,2.9.67,4.41,1l0-.26a11.73,11.73,0,0,0,2.24,0,27,27,0,0,0,2.9-.89c-.32-1-.57-2-1-2.94S108.74,82.4,108.41,81.49Z"/>
        <path class="cls-2" d="M257.52,65.06c3.35-2.3,3-6.11,3.3-9.38a14.38,14.38,0,0,0-1.39-8,14.62,14.62,0,0,0-11.19-7.2c-6.32-.7-12.79,0-19.19-.05-2.49,0-3,1.28-3,3.47.06,12.15,0,24.31,0,36.46.05,8.56-1.39,7.1,7.42,7.31,2,0,2.63-.69,2.57-2.63-.11-3.74-.2-7.5.06-11.23.09-1.26,1-3.07,2-3.53,2.33-1.07,5.33,0,6.26,1.54,1.52,2.5,3.11,4.95,4.68,7.41,1.17,1.83,2.76,3.52,3.42,5.51s1.59,3.07,3.81,2.91c1.74-.12,3.5,0,5.24-.05a13.42,13.42,0,0,0,2.61-.71L252.66,68.21C254.59,67,256.08,66,257.52,65.06Z"/>
        <path class="cls-2" d="M51.45,61.7c-1.13-.43-2.79-.07-3.55-.77-1.9-1.75-4.08-2-6.42-2.19-1.64-.13-5-3.41-5.1-4.82A5.41,5.41,0,0,1,41.81,48c2.25,0,4.5,0,6.75,0,1.94,0,3.7,0,5.29,1.6.63.62,2.81.8,3.23.3a21.4,21.4,0,0,0,2.61-4.95,1.2,1.2,0,0,0-.19-1.12c-1.74-1.2-3.49-3.16-5.34-3.29-6.1-.43-12.25-.22-18.39-.16-.64,0-1.3.61-1.9,1a19.22,19.22,0,0,0-6.52,6.91c-.92,1.7-2,7.7-.79,9.26,3.17,4.2,6.26,8.57,12.14,9.29a7,7,0,0,1,1.8.79,27.45,27.45,0,0,0,3.75,1.65c4.75,1.32,7.09,4.43,5.43,9.09a3,3,0,0,1-1.8,1.74,39.39,39.39,0,0,1-14.83-.23,3.56,3.56,0,0,1-1.62-1c-1.47-1.38-3.3-1.38-4.5.09a5.37,5.37,0,0,0,.37,7,5.8,5.8,0,0,0,4.77,2.15,17,17,0,0,1,4.09.9c1.59.37,3.26,1.22,4.77,1,4.22-.63,8.37-1.69,12.55-2.61a1.89,1.89,0,0,0,.62-.4c4.09-3.06,7.36-6.55,6.27-11.47C60.39,67.86,57.88,64.15,51.45,61.7Z"/>
        <path class="cls-2" d="M167,43.22c0-2.1-.6-3.13-2.85-3-1.74.13-3.5-.07-5.24.07a3.23,3.23,0,0,0-2.14.94c-2.72,3.58-5.38,7.21-7.93,10.91-2.27,3.3-4.38,6.73-7.1,10.94-3.3-4.76-6.19-8.88-9-13-1.32-1.94-2.48-4-3.8-5.93-2.67-3.89-2.69-3.87-7.6-3.87-.75,0-1.5.05-2.25,0a2.29,2.29,0,0,0-2.69,2.28,25,25,0,0,0-.16,3.24q0,19.12,0,38.24c0,3.7.22,3.92,4,3.92a11.21,11.21,0,0,1,1.25,0c2.27.26,3.08-.7,3.05-3-.11-7.75-.09-15.5,0-23.24a23.8,23.8,0,0,1,.81-4.26l.87,0a22.44,22.44,0,0,0,1.56,3c2.46,3.41,4.9,6.85,7.55,10.12a45.9,45.9,0,0,0,5.4,5.39c.36.32,1.5.07,2.1-.26,4.08-2.26,5.48-6.71,8.13-10.15.9-1.17,1.8-2.34,2.66-3.54.67-.93,1.26-1.92,1.89-2.88.57,1.21,1.21,2.39,1.66,3.65a6.17,6.17,0,0,1,.06,2q0,8.25,0,16.49c0,6.71,0,6.63,6.78,6.68,2.29,0,3-.76,3-3Q166.86,64.09,167,43.22Z"/>
        <path class="cls-2" d="M454.41,64.13c-2.47-1.42-4.72-4.23-8.23-3.43a.77.77,0,0,1-.65-.32c-1.17-2.13-3.31-1.67-5.17-2.22a13.18,13.18,0,0,1-5.71-3.4c-1.6-1.71,1.38-6.08,4.07-6.23a39.73,39.73,0,0,1,4.25,0c2.63.14,5.62-.89,7.4,2.2.12.2.6.2.92.27,2.71.59,6.22-2.16,6.55-5.12.29-2.58-2.52-5.72-5.11-6.12s-5-1.43-7.59-1.71a35.23,35.23,0,0,0-7.26.28c-1.18.12-2.29,1-3.45,1-6.07.26-9.8,4.26-11.27,9.15-1,3.49-2.44,8.36,1.67,11.74.27.22.3.76.4,1.16a3.77,3.77,0,0,0,3.44,3.11c.55.07,1.35.25,1.54.63.91,1.82,2.43,2,4.19,2a1.73,1.73,0,0,1,1.34.51c1.39,2.33,3.83,1.81,5.88,2.49a9.46,9.46,0,0,1,4.87,3.48c1.44,2.32-.56,5.76-3.37,5.93a106.54,106.54,0,0,1-11.69-.22c-.69,0-1.31-.93-2-1.15-1.67-.51-3.42-1.21-5.08-1.08-.62.05-1.13,2.18-1.59,3.4s-.78,2.44-1.28,4c.82,1,1.57,2.65,2.79,3.12a49.05,49.05,0,0,0,10.89,3.23,24.11,24.11,0,0,0,19.18-5.34c1.91-1.59,4.11-3.55,4-6.65-.07-2.83-.1-5.67,0-8.49C458.45,67.38,456.25,65.19,454.41,64.13Z"/>
        <path class="cls-2" d="M281.64,63.95c0-5.67,0-11.33,0-17-.06-7.3,1.3-6.93-7-6.94-3.47,0-3.75.22-3.76,3.66q0,19.12,0,38.24c0,6.58.51,7,7.12,6.28.33,0,.65-.18,1-.19,2.15-.09,2.73-1.27,2.71-3.31C281.59,77.78,281.65,70.86,281.64,63.95Z"/>
        <path class="cls-1" d="M438.15,104.66c-.64.14-1.32,1.79-1.34,2.78"/>
        <path class="cls-1" d="M443.94,110.42"/>
        <path class="cls-2" d="M482.28,92.68c0-.54.06-1.08.08-1.62-.08-2.19-.24-4.37-.24-6.56q0-39.87,0-79.74c0-4.45-.28-4.72-4.64-4.72H51c-.42,0-.83,0-1.25,0-2-.15-2.84.83-2.82,2.83.05,4.75,0,9.5,0,14.25a24.68,24.68,0,0,1-.24,4.22c-.37,2-2.48,3-5.36,2.65-2.11-.24-2.13-1.72-2.12-3.29,0-5.83-.07-11.67,0-17.5C39.27.8,38.34,0,36,0,26,.09,16,0,6,0,.85,0,0,.85,0,5.92Q0,64.54,0,123.16c0,4.16,1,5.07,5.19,5.09l170.31.71a21.36,21.36,0,0,1,3.58-.6q126.57,0,253.14,0c4.49,0,4.5,0,4.5-4.41,0-5.5-.06-11,.07-16.49,0-1,.7-2.64,1.34-2.78a5.38,5.38,0,0,1,3.56.86c1.73,1.06,2.32,2.75,2.24,4.9-.17,4.83-.07,9.66,0,14.49,0,2.55.9,3.42,3.48,3.42,10.58,0,21.16,0,31.74,0,2.47,0,3.15-1.06,3.14-3.33-.06-10.25,0-20.49,0-30.74C482.23,93.76,482.25,93.22,482.28,92.68Z"/>
        <text class="cls-3" transform="translate(28.06 85.33)">S<tspan class="cls-4" x="39.38" y="0">AMARI</tspan><tspan class="cls-5" x="256.65" y="0">T</tspan><tspan class="cls-4" x="289.64" y="0">ANS</tspan></text>
        <text class="cls-6" transform="translate(347.3 171.69)">People</text>
      </g>
    </g>
  </g>
</svg>
