<svg xmlns="http://www.w3.org/2000/svg" viewBox="0 0 508.3 191.41">
  <defs>
    <style>
      .cls-1 {
        fill: #1aa175;
      }

      .cls-2 {
        fill: #8aba35;
      }

      .cls-3 {
        fill: #fff;
      }
    </style>
  </defs>
  <title>Asset 9</title>
  <g id="Layer_2" data-name="Layer 2">
    <g id="Layer_1-2" data-name="Layer 1">
      <g id="User">
        <rect class="cls-1" x="261.3" y="102.41" width="247" height="89" rx="2.69" ry="2.69"/>
        <path class="cls-1" d="M482.36,91.05h0c0,.54-.05,1.08-.08,1.62C482.3,92.14,482.33,91.6,482.36,91.05Z"/>
        <path class="cls-1" d="M438.15,104.66c-.64.14-1.32,1.79-1.34,2.78"/>
        <path class="cls-1" d="M443.94,110.42"/>
        <path class="cls-2" d="M482.28,92.68c0-.54.06-1.08.08-1.62-.08-2.19-.24-4.37-.24-6.56q0-39.87,0-79.74c0-4.45-.28-4.72-4.64-4.72H51c-.42,0-.83,0-1.25,0-2-.15-2.84.83-2.82,2.83.05,4.75,0,9.5,0,14.25a24.68,24.68,0,0,1-.24,4.22c-.37,2-2.48,3-5.36,2.65-2.11-.24-2.13-1.72-2.12-3.29,0-5.83-.07-11.67,0-17.5C39.27.8,38.34,0,36,0,26,.09,16,0,6,0,.85,0,0,.85,0,5.92Q0,64.54,0,123.16c0,4.16,1,5.07,5.19,5.09l170.31.71a21.36,21.36,0,0,1,3.58-.6q126.57,0,253.14,0c4.49,0,4.5,0,4.5-4.41,0-5.5-.06-11,.07-16.49,0-1,.7-2.64,1.34-2.78a5.38,5.38,0,0,1,3.56.86c1.73,1.06,2.32,2.75,2.24,4.9-.17,4.83-.07,9.66,0,14.49,0,2.55.9,3.42,3.48,3.42,10.58,0,21.16,0,31.74,0,2.47,0,3.15-1.06,3.14-3.33-.06-10.25,0-20.49,0-30.74C482.23,93.76,482.25,93.22,482.28,92.68Z"/>
        <g>
          <path class="cls-3" d="M31.15,83.15l3.37-7.9a21.63,21.63,0,0,0,5.86,3.25,18.07,18.07,0,0,0,6.42,1.3,16.48,16.48,0,0,0,3.06-.26,11.49,11.49,0,0,0,2.72-.88,4.71,4.71,0,0,0,2.09-1.87,5.74,5.74,0,0,0,.76-3q0-2.88-3.12-4.37a32.13,32.13,0,0,0-4-1.61Q46,67,44,66.36a38.57,38.57,0,0,1-4-1.52,15.56,15.56,0,0,1-3.74-2.32,11.74,11.74,0,0,1-2.78-3.41A12,12,0,0,1,32,53.29a12.88,12.88,0,0,1,1-5.11,11.69,11.69,0,0,1,2.67-3.93,16,16,0,0,1,3.91-2.72,19.11,19.11,0,0,1,4.68-1.62,24.66,24.66,0,0,1,5-.51,32.92,32.92,0,0,1,6.31.63,21.24,21.24,0,0,1,5.7,1.9q2.36,1.27,2.36,3.25A5.83,5.83,0,0,1,63.32,47a27.72,27.72,0,0,1-1.07,2.58l-.79,1.72a14.64,14.64,0,0,0-5.54-3.22A21,21,0,0,0,49.27,47a14.9,14.9,0,0,0-2.77.25,11.08,11.08,0,0,0-2.57.82,4.79,4.79,0,0,0-2,1.69,4.57,4.57,0,0,0-.76,2.63,4.63,4.63,0,0,0,2.78,4.18,34.54,34.54,0,0,0,5.5,2q1.95.62,3.24,1.07t3,1.19a19.21,19.21,0,0,1,2.9,1.49A21.24,21.24,0,0,1,61,64.21a9.6,9.6,0,0,1,2,2.34,12.56,12.56,0,0,1,1.21,2.91,13,13,0,0,1,.48,3.62A12.78,12.78,0,0,1,59.45,83.8q-4.93,3.73-12.66,3.73A29.32,29.32,0,0,1,31.15,83.15Z"/>
          <path class="cls-3" d="M68,86.33,85.87,45.67A13.5,13.5,0,0,1,87,43.59a5.4,5.4,0,0,1,1.34-1.42,10,10,0,0,1,1.39-.85,5.67,5.67,0,0,1,1.73-.45q1.1-.14,1.87-.17t2.23,0h.4l19.94,45.66h-10l-4.61-10.88H81.94L77.58,86.33ZM85,68.15H98l-6.65-15.7Z"/>
          <path class="cls-3" d="M121.58,86.33V45.49a4.63,4.63,0,0,1,1.36-3.54,5.28,5.28,0,0,1,3.77-1.28h4.17l13.94,19.69,13.91-19.69h8.93V86.33h-9V55.23l-10.2,14.31a4.58,4.58,0,0,1-4,2.23,4.7,4.7,0,0,1-4-2.29l-10-14.31V86.33Z"/>
          <path class="cls-3" d="M173.33,86.33,191.2,45.67a13.5,13.5,0,0,1,1.11-2.09,5.4,5.4,0,0,1,1.34-1.42,10,10,0,0,1,1.39-.85,5.67,5.67,0,0,1,1.73-.45q1.1-.14,1.87-.17t2.23,0h.4l19.94,45.66h-10l-4.61-10.88H187.27l-4.36,10.88Zm17-18.18h13l-6.65-15.7Z"/>
          <path class="cls-3" d="M226.9,86.33V45.49a4.63,4.63,0,0,1,1.36-3.54A5.28,5.28,0,0,1,232,40.67h9.55q9.21,0,13.88,3.36t4.67,10a12.31,12.31,0,0,1-2.58,7.83,13.64,13.64,0,0,1-7.16,4.63l-.4.06,13.39,19.79h-11l-12-18.58-.06-.12h-4.11v18.7Zm9.31-25.5h5.63q8.81,0,8.81-6.49t-8.81-6.49h-5.63Z"/>
          <path class="cls-3" d="M270.31,86.33V45.49a4.63,4.63,0,0,1,1.36-3.54,5.28,5.28,0,0,1,3.77-1.28h4.17V86.33Z"/>
          <path class="cls-3" d="M285.61,48.4V45.49A4.65,4.65,0,0,1,287,41.93a5.31,5.31,0,0,1,3.79-1.27h31.78V48.4H308.7V86.33h-9.3V48.4Z"/>
          <path class="cls-3" d="M318.25,86.33l17.87-40.65a13.5,13.5,0,0,1,1.11-2.09,5.4,5.4,0,0,1,1.34-1.42,10,10,0,0,1,1.39-.85,5.67,5.67,0,0,1,1.73-.45q1.1-.14,1.87-.17t2.23,0h.4l19.94,45.66h-10l-4.61-10.88H332.2l-4.36,10.88Zm17-18.18h13l-6.65-15.7Z"/>
          <path class="cls-3" d="M371.83,86.33V45.67h0A4.85,4.85,0,0,1,373.21,42a5.44,5.44,0,0,1,3.9-1.31h3.41v.06l23.31,29.4V40.67h9.12V86.33h-8.22l-23.9-30.27V86.33Z"/>
          <path class="cls-3" d="M421.17,83.15l3.37-7.9a21.63,21.63,0,0,0,5.86,3.25,18.07,18.07,0,0,0,6.42,1.3,16.48,16.48,0,0,0,3.06-.26,11.49,11.49,0,0,0,2.72-.88,4.71,4.71,0,0,0,2.09-1.87,5.74,5.74,0,0,0,.76-3q0-2.88-3.12-4.37a32.13,32.13,0,0,0-4-1.61Q436,67,434,66.36a38.57,38.57,0,0,1-4-1.52,15.56,15.56,0,0,1-3.74-2.32,11.74,11.74,0,0,1-2.78-3.41,12,12,0,0,1-1.39-5.82,12.88,12.88,0,0,1,1-5.11,11.69,11.69,0,0,1,2.67-3.93,16,16,0,0,1,3.91-2.72,19.11,19.11,0,0,1,4.68-1.62,24.66,24.66,0,0,1,5-.51,32.92,32.92,0,0,1,6.31.63,21.24,21.24,0,0,1,5.7,1.9q2.36,1.27,2.36,3.25a5.83,5.83,0,0,1-.37,1.83,27.72,27.72,0,0,1-1.07,2.58l-.79,1.72a14.64,14.64,0,0,0-5.54-3.22A21,21,0,0,0,439.28,47a14.9,14.9,0,0,0-2.77.25,11.08,11.08,0,0,0-2.57.82,4.79,4.79,0,0,0-2,1.69,4.57,4.57,0,0,0-.76,2.63A4.63,4.63,0,0,0,434,56.57a34.54,34.54,0,0,0,5.5,2q1.95.62,3.24,1.07t3,1.19a19.21,19.21,0,0,1,2.9,1.49,21.24,21.24,0,0,1,2.41,1.84,9.6,9.6,0,0,1,2,2.34,12.56,12.56,0,0,1,1.21,2.91,13,13,0,0,1,.48,3.62,12.78,12.78,0,0,1-5.27,10.72q-4.93,3.73-12.66,3.73A29.32,29.32,0,0,1,421.17,83.15Z"/>
        </g>
        <g>
          <path class="cls-3" d="M350.59,172.69V146.5a3,3,0,0,1,.87-2.27,3.39,3.39,0,0,1,2.42-.82h5.81a20.29,20.29,0,0,1,5,.57,11.27,11.27,0,0,1,3.48,1.44,7.48,7.48,0,0,1,2.1,2.12,7.89,7.89,0,0,1,1.1,2.45,11,11,0,0,1,.29,2.57,10.51,10.51,0,0,1-.21,2.12,9.84,9.84,0,0,1-.69,2.08,6.14,6.14,0,0,1-1.4,1.93,10.37,10.37,0,0,1-2.19,1.56,11.27,11.27,0,0,1-3.2,1.07,22.59,22.59,0,0,1-4.32.38h-3.13v11Zm6-16h3.37a9.07,9.07,0,0,0,2.79-.38,3.87,3.87,0,0,0,1.73-1,4,4,0,0,0,.81-1.32,4.64,4.64,0,0,0,0-2.93,4,4,0,0,0-.81-1.32,3.87,3.87,0,0,0-1.73-1,9.08,9.08,0,0,0-2.79-.38h-3.37Z"/>
          <path class="cls-3" d="M374.72,162.58a10.82,10.82,0,0,1,1.39-5.41,10.2,10.2,0,0,1,3.8-3.87,10.32,10.32,0,0,1,5.3-1.41,10,10,0,0,1,6.36,2.06,9.16,9.16,0,0,1,3.38,5.49,8.55,8.55,0,0,1,.22,1.59,3.35,3.35,0,0,1-.61,2,3.31,3.31,0,0,1-2.68.93H380a5.51,5.51,0,0,0,2,3.5,6.48,6.48,0,0,0,4,1.22,11.62,11.62,0,0,0,6.74-2.27l1.51,3.92a13.38,13.38,0,0,1-8.49,2.85,11.14,11.14,0,0,1-8-3A10.13,10.13,0,0,1,374.72,162.58Zm5.37-2h10.23a4.88,4.88,0,0,0-1.73-3.07,5.19,5.19,0,0,0-3.35-1.1,5.09,5.09,0,0,0-3.28,1.09A5.59,5.59,0,0,0,380.1,160.56Z"/>
          <path class="cls-3" d="M397.49,162.52a10.35,10.35,0,0,1,5.5-9.24,12.48,12.48,0,0,1,11.43,0,10.23,10.23,0,0,1,4,3.83,10.41,10.41,0,0,1,1.45,5.41,10.15,10.15,0,0,1-3.2,7.64,11.05,11.05,0,0,1-8,3.07,11.82,11.82,0,0,1-5.72-1.39,10.33,10.33,0,0,1-4-3.85A10.47,10.47,0,0,1,397.49,162.52Zm5.77,0a5.89,5.89,0,0,0,1.54,4.19,5.13,5.13,0,0,0,3.92,1.64,5.05,5.05,0,0,0,3.87-1.64,6.48,6.48,0,0,0,0-8.36,5,5,0,0,0-3.87-1.66,5.1,5.1,0,0,0-3.92,1.66A5.9,5.9,0,0,0,403.26,162.52Z"/>
          <path class="cls-3" d="M423.68,181.18V155a2.42,2.42,0,0,1,.74-1.88,2.83,2.83,0,0,1,2-.67h2.2l.28,2.5a8,8,0,0,1,6.5-3,9.82,9.82,0,0,1,7.37,3,10.48,10.48,0,0,1,2.95,7.58,11.29,11.29,0,0,1-1.32,5.45,9.89,9.89,0,0,1-8.87,5.25,8.12,8.12,0,0,1-6.35-2.78v10.73Zm6.92-22.84a6.48,6.48,0,0,0,0,8.36,5.43,5.43,0,0,0,7.79,0,6.51,6.51,0,0,0,0-8.38,5.43,5.43,0,0,0-7.79,0Z"/>
          <path class="cls-3" d="M449.42,172.69V146a2.49,2.49,0,0,1,.73-1.91,2.79,2.79,0,0,1,2-.68h2.76v29.29Z"/>
          <path class="cls-3" d="M458.66,162.58a10.82,10.82,0,0,1,1.39-5.41,10.2,10.2,0,0,1,3.8-3.87,10.32,10.32,0,0,1,5.3-1.41,10,10,0,0,1,6.36,2.06,9.16,9.16,0,0,1,3.38,5.49,8.55,8.55,0,0,1,.22,1.59,3.35,3.35,0,0,1-.61,2,3.31,3.31,0,0,1-2.68.93H464a5.51,5.51,0,0,0,2,3.5,6.48,6.48,0,0,0,4,1.22,11.62,11.62,0,0,0,6.74-2.27l1.51,3.92a13.38,13.38,0,0,1-8.49,2.85,11.14,11.14,0,0,1-8-3A10.13,10.13,0,0,1,458.66,162.58Zm5.37-2h10.23a4.88,4.88,0,0,0-1.73-3.07,5.19,5.19,0,0,0-3.35-1.1,5.09,5.09,0,0,0-3.28,1.09A5.59,5.59,0,0,0,464,160.56Z"/>
        </g>
      </g>
    </g>
  </g>
</svg>
