<svg xmlns="http://www.w3.org/2000/svg" viewBox="0 0 768.07 343.67">
  <defs>
    <style>
      .cls-1 {
        fill: #387953;
      }

      .cls-2 {
        fill: #377953;
      }
    </style>
  </defs>
  <title>pattern</title>
  <g id="Layer_2" data-name="Layer 2">
    <g id="Layer_1-2" data-name="Layer 1">
      <g>
        <path class="cls-1" d="M187.3,299.41c.13,2.13.33,4.25.39,6.39q.18,6.31.23,12.62c0,1.62-.22,3.23-.18,4.85s.9,2.2,2.41,2.31c6.72.49,13.43,1,20.14,1.58a11.14,11.14,0,0,1,2.8,1,12.89,12.89,0,0,1-1.71,2.29q-6.47,5.58-13.07,11a3.67,3.67,0,0,1-2.26.64c-5.05-.13-10.1-.27-15.15-.57-2.56-.15-5.12-.62-7.66-1a3.33,3.33,0,0,1-3.06-3.12c-.12-1.07-.35-2.14-.39-3.22-.2-5.9-.32-11.81-.54-17.71a5.27,5.27,0,0,1,2.26-4.71c3.81-2.92,7.6-5.87,11.3-8.92A39.24,39.24,0,0,0,186.4,299Z"/>
        <path class="cls-2" d="M43.26,310c0,5.32.15,10.65-.09,16a8.13,8.13,0,0,1-2,4.8C37.25,335,33,339,28.85,343a2.62,2.62,0,0,1-2,.63c-.33-.05-.74-1-.75-1.61-.08-6.91-.15-13.82-.08-20.73,0-2.41-.47-3.1-2.9-3.26q-10.67-.71-21.33-1.53A2.63,2.63,0,0,1,0,315.59c-.19-.27.31-1.26.74-1.66,4.49-4.16,9-8.3,13.6-12.34a4,4,0,0,1,2.56-.5c6.31.29,12.62.65,18.92,1,.42,0,.83,0,1.25.08,4.72.55,5.67,1.61,5.66,6.33q0,.75,0,1.5Z"/>
        <path class="cls-2" d="M57.4,339c.53-7.41,1-14.17,1.54-20.92a2.47,2.47,0,0,1,.88-1.45q6.65-5.65,13.35-11.23c1.28-1.07,2.57-2.12,3.9-3.11a3.16,3.16,0,0,1,4.48.16c5.38,4.72,10.89,9.3,16.25,14a4.78,4.78,0,0,1,1.39,3c.29,4.64.4,9.3.51,14,.06,2.59-.78,2.66-3.13,2.44-6.4-.58-8.78-6.42-13.25-9.49a20.75,20.75,0,0,1-1.78-1.73c-3-2.68-3.26-2.56-6.32.1-5.14,4.47-10.41,8.81-15.64,13.18A13.15,13.15,0,0,1,57.4,339Z"/>
        <path class="cls-2" d="M153,304.15c-4.19,4.31-8.22,8.79-12.6,12.89-5.58,5.23-5.82,6.22.14,11.11a70.18,70.18,0,0,1,12,13,7.05,7.05,0,0,1,.67,1.74,9.15,9.15,0,0,1-1.8.39c-4.56.06-9.13,0-13.68.14-3,.09-5.52-.47-7.55-2.89-4.48-5.35-9.07-10.62-13.62-15.92-1.39-1.62-1.52-3,.18-4.69,4.73-4.81,9.28-9.79,13.83-14.77a5.81,5.81,0,0,1,4.59-2c4.47,0,8.93-.31,13.39-.38a26.78,26.78,0,0,1,4,.53Z"/>
      </g>
      <g>
        <path class="cls-1" d="M409.3,299.41c.13,2.13.33,4.25.39,6.39q.18,6.31.23,12.62c0,1.62-.22,3.23-.18,4.85s.9,2.2,2.41,2.31c6.72.49,13.43,1,20.14,1.58a11.14,11.14,0,0,1,2.8,1,12.89,12.89,0,0,1-1.71,2.29q-6.47,5.58-13.07,11a3.67,3.67,0,0,1-2.26.64c-5.05-.13-10.1-.27-15.15-.57-2.56-.15-5.12-.62-7.66-1a3.33,3.33,0,0,1-3.06-3.12c-.12-1.07-.35-2.14-.39-3.22-.2-5.9-.32-11.81-.54-17.71a5.27,5.27,0,0,1,2.26-4.71c3.81-2.92,7.6-5.87,11.3-8.92A39.24,39.24,0,0,0,408.4,299Z"/>
        <path class="cls-2" d="M265.26,310c0,5.32.15,10.65-.09,16a8.13,8.13,0,0,1-2,4.8C259.25,335,255,339,250.85,343a2.62,2.62,0,0,1-2,.63c-.33-.05-.74-1-.75-1.61-.08-6.91-.15-13.82-.08-20.73,0-2.41-.47-3.1-2.9-3.26q-10.67-.71-21.33-1.53a2.63,2.63,0,0,1-1.79-.93c-.19-.27.31-1.26.74-1.66,4.49-4.16,9-8.3,13.6-12.34a4,4,0,0,1,2.56-.5c6.31.29,12.62.65,18.92,1,.42,0,.83,0,1.25.08,4.72.55,5.67,1.61,5.66,6.33q0,.75,0,1.5Z"/>
        <path class="cls-2" d="M279.39,339c.53-7.41,1-14.17,1.54-20.92a2.47,2.47,0,0,1,.88-1.45q6.65-5.65,13.35-11.23c1.28-1.07,2.57-2.12,3.9-3.11a3.16,3.16,0,0,1,4.48.16c5.38,4.72,10.89,9.3,16.25,14a4.78,4.78,0,0,1,1.39,3c.29,4.64.4,9.3.51,14,.06,2.59-.78,2.66-3.13,2.44-6.4-.58-8.78-6.42-13.25-9.49a20.75,20.75,0,0,1-1.78-1.73c-3-2.68-3.26-2.56-6.32.1-5.14,4.47-10.41,8.81-15.64,13.18A13.15,13.15,0,0,1,279.39,339Z"/>
        <path class="cls-2" d="M375,304.15c-4.19,4.31-8.22,8.79-12.6,12.89-5.58,5.23-5.82,6.22.14,11.11a70.18,70.18,0,0,1,12,13,7.05,7.05,0,0,1,.67,1.74,9.15,9.15,0,0,1-1.8.39c-4.56.06-9.13,0-13.68.14-3,.09-5.52-.47-7.55-2.89-4.48-5.35-9.07-10.62-13.62-15.92-1.39-1.62-1.52-3,.18-4.69,4.73-4.81,9.28-9.79,13.83-14.77a5.81,5.81,0,0,1,4.59-2c4.47,0,8.93-.31,13.39-.38a26.78,26.78,0,0,1,4,.53Z"/>
      </g>
      <g>
        <path class="cls-1" d="M631.3,299.41c.13,2.13.33,4.25.39,6.39q.18,6.31.23,12.62c0,1.62-.22,3.23-.18,4.85s.9,2.2,2.41,2.31c6.72.49,13.43,1,20.14,1.58a11.14,11.14,0,0,1,2.8,1,12.89,12.89,0,0,1-1.71,2.29q-6.47,5.58-13.07,11a3.67,3.67,0,0,1-2.26.64c-5.05-.13-10.1-.27-15.15-.57-2.56-.15-5.12-.62-7.66-1a3.33,3.33,0,0,1-3.06-3.12c-.12-1.07-.35-2.14-.39-3.22-.2-5.9-.32-11.81-.54-17.71a5.27,5.27,0,0,1,2.26-4.71c3.81-2.92,7.6-5.87,11.3-8.92A39.24,39.24,0,0,0,630.4,299Z"/>
        <path class="cls-2" d="M487.26,310c0,5.32.15,10.65-.09,16a8.13,8.13,0,0,1-2,4.8C481.25,335,477,339,472.84,343a2.62,2.62,0,0,1-2,.63c-.33-.05-.74-1-.75-1.61-.08-6.91-.15-13.82-.08-20.73,0-2.41-.47-3.1-2.9-3.26q-10.67-.71-21.33-1.53a2.63,2.63,0,0,1-1.79-.93c-.19-.27.31-1.26.74-1.66,4.49-4.16,9-8.3,13.6-12.34a4,4,0,0,1,2.56-.5c6.31.29,12.62.65,18.92,1,.42,0,.83,0,1.25.08,4.72.55,5.67,1.61,5.66,6.33q0,.75,0,1.5Z"/>
        <path class="cls-2" d="M501.39,339c.53-7.41,1-14.17,1.54-20.92a2.47,2.47,0,0,1,.88-1.45q6.65-5.65,13.35-11.23c1.28-1.07,2.57-2.12,3.9-3.11a3.16,3.16,0,0,1,4.48.16c5.38,4.72,10.89,9.3,16.25,14a4.78,4.78,0,0,1,1.39,3c.29,4.64.4,9.3.51,14,.06,2.59-.78,2.66-3.13,2.44-6.4-.58-8.78-6.42-13.25-9.49a20.75,20.75,0,0,1-1.78-1.73c-3-2.68-3.26-2.56-6.32.1-5.14,4.47-10.41,8.81-15.64,13.18A13.15,13.15,0,0,1,501.39,339Z"/>
        <path class="cls-2" d="M597,304.15c-4.19,4.31-8.22,8.79-12.6,12.89-5.58,5.23-5.82,6.22.14,11.11a70.18,70.18,0,0,1,12,13,7.05,7.05,0,0,1,.67,1.74,9.15,9.15,0,0,1-1.8.39c-4.56.06-9.13,0-13.68.14-3,.09-5.52-.47-7.55-2.89-4.48-5.35-9.07-10.62-13.62-15.92-1.39-1.62-1.52-3,.18-4.69,4.73-4.81,9.28-9.79,13.83-14.77a5.81,5.81,0,0,1,4.59-2c4.47,0,8.93-.31,13.39-.38a26.78,26.78,0,0,1,4,.53Z"/>
      </g>
      <g>
        <path class="cls-2" d="M709.25,310c0,5.32.15,10.65-.09,16a8.13,8.13,0,0,1-2,4.8C703.24,335,699,339,694.84,343a2.62,2.62,0,0,1-2,.63c-.33-.05-.74-1-.75-1.61-.08-6.91-.15-13.82-.08-20.73,0-2.41-.47-3.1-2.9-3.26q-10.67-.71-21.33-1.53a2.63,2.63,0,0,1-1.79-.93c-.19-.27.31-1.26.74-1.66,4.49-4.16,9-8.3,13.6-12.34a4,4,0,0,1,2.56-.5c6.31.29,12.62.65,18.92,1,.42,0,.83,0,1.25.08,4.72.55,5.67,1.61,5.66,6.33q0,.75,0,1.5Z"/>
        <path class="cls-2" d="M723.39,339c.53-7.41,1-14.17,1.54-20.92a2.47,2.47,0,0,1,.88-1.45q6.65-5.65,13.35-11.23c1.28-1.07,2.57-2.12,3.9-3.11a3.16,3.16,0,0,1,4.48.16c5.38,4.72,10.89,9.3,16.25,14a4.78,4.78,0,0,1,1.39,3c.29,4.64.4,9.3.51,14,.06,2.59-.78,2.66-3.13,2.44-6.4-.58-8.78-6.42-13.25-9.49a20.75,20.75,0,0,1-1.78-1.73c-3-2.68-3.26-2.56-6.32.1-5.14,4.47-10.41,8.81-15.64,13.18A13.15,13.15,0,0,1,723.39,339Z"/>
      </g>
      <g>
        <path class="cls-1" d="M76.3,240.41c.13,2.13.33,4.25.39,6.39q.18,6.31.23,12.62c0,1.62-.22,3.23-.18,4.85s.9,2.2,2.41,2.31c6.72.49,13.43,1,20.14,1.58a11.14,11.14,0,0,1,2.8,1,12.89,12.89,0,0,1-1.71,2.29q-6.47,5.58-13.07,11a3.67,3.67,0,0,1-2.26.64c-5.05-.13-10.1-.27-15.15-.57-2.56-.15-5.12-.62-7.66-1a3.33,3.33,0,0,1-3.06-3.12c-.12-1.07-.35-2.14-.39-3.22-.2-5.9-.32-11.81-.54-17.71a5.27,5.27,0,0,1,2.26-4.71c3.81-2.92,7.6-5.87,11.3-8.92A39.24,39.24,0,0,0,75.4,240Z"/>
        <path class="cls-2" d="M42,245.15c-4.19,4.31-8.22,8.79-12.6,12.89-5.58,5.23-5.82,6.22.14,11.11a70.18,70.18,0,0,1,12,13,7.05,7.05,0,0,1,.67,1.74,9.15,9.15,0,0,1-1.8.39c-4.56.06-9.13,0-13.68.14-3,.09-5.52-.47-7.55-2.89-4.48-5.35-9.07-10.62-13.62-15.92-1.39-1.62-1.52-3,.18-4.69,4.73-4.81,9.28-9.79,13.83-14.77a5.81,5.81,0,0,1,4.59-2c4.47,0,8.93-.31,13.39-.38a26.78,26.78,0,0,1,4,.53Z"/>
      </g>
      <g>
        <path class="cls-1" d="M298.3,240.41c.13,2.13.33,4.25.39,6.39q.18,6.31.23,12.62c0,1.62-.22,3.23-.18,4.85s.9,2.2,2.41,2.31c6.72.49,13.43,1,20.14,1.58a11.14,11.14,0,0,1,2.8,1,12.89,12.89,0,0,1-1.71,2.29q-6.47,5.58-13.07,11a3.67,3.67,0,0,1-2.26.64c-5.05-.13-10.1-.27-15.15-.57-2.56-.15-5.12-.62-7.66-1a3.33,3.33,0,0,1-3.06-3.12c-.12-1.07-.35-2.14-.39-3.22-.2-5.9-.32-11.81-.54-17.71a5.27,5.27,0,0,1,2.26-4.71c3.81-2.92,7.6-5.87,11.3-8.92A39.24,39.24,0,0,0,297.4,240Z"/>
        <path class="cls-2" d="M154.26,251c0,5.32.15,10.65-.09,16a8.13,8.13,0,0,1-2,4.8C148.25,276,144,280,139.85,284a2.62,2.62,0,0,1-2,.63c-.33-.05-.74-1-.75-1.61-.08-6.91-.15-13.82-.08-20.73,0-2.41-.47-3.1-2.9-3.26q-10.67-.71-21.33-1.53a2.63,2.63,0,0,1-1.79-.93c-.19-.27.31-1.26.74-1.66,4.49-4.16,9-8.3,13.6-12.34a4,4,0,0,1,2.56-.5c6.31.29,12.62.65,18.92,1,.42,0,.83,0,1.25.08,4.72.55,5.67,1.61,5.66,6.33q0,.75,0,1.5Z"/>
        <path class="cls-2" d="M168.39,280c.53-7.41,1-14.17,1.54-20.92a2.47,2.47,0,0,1,.88-1.45q6.65-5.65,13.35-11.23c1.28-1.07,2.57-2.12,3.9-3.11a3.16,3.16,0,0,1,4.48.16c5.38,4.72,10.89,9.3,16.25,14a4.78,4.78,0,0,1,1.39,3c.29,4.64.4,9.3.51,14,.06,2.59-.78,2.66-3.13,2.44-6.4-.58-8.78-6.42-13.25-9.49a20.75,20.75,0,0,1-1.78-1.73c-3-2.68-3.26-2.56-6.32.1-5.14,4.47-10.41,8.81-15.64,13.18A13.15,13.15,0,0,1,168.39,280Z"/>
        <path class="cls-2" d="M264,245.15c-4.19,4.31-8.22,8.79-12.6,12.89-5.58,5.23-5.82,6.22.14,11.11a70.18,70.18,0,0,1,12,13,7.05,7.05,0,0,1,.67,1.74,9.15,9.15,0,0,1-1.8.39c-4.56.06-9.13,0-13.68.14-3,.09-5.52-.47-7.55-2.89-4.48-5.35-9.07-10.62-13.62-15.92-1.39-1.62-1.52-3,.18-4.69,4.73-4.81,9.28-9.79,13.83-14.77a5.81,5.81,0,0,1,4.59-2c4.47,0,8.93-.31,13.39-.38a26.78,26.78,0,0,1,4,.53Z"/>
      </g>
      <g>
        <path class="cls-1" d="M520.3,240.41c.13,2.13.33,4.25.39,6.39q.18,6.31.23,12.62c0,1.62-.22,3.23-.18,4.85s.9,2.2,2.41,2.31c6.72.49,13.43,1,20.14,1.58a11.14,11.14,0,0,1,2.8,1,12.89,12.89,0,0,1-1.71,2.29q-6.47,5.58-13.07,11a3.67,3.67,0,0,1-2.26.64c-5.05-.13-10.1-.27-15.15-.57-2.56-.15-5.12-.62-7.66-1a3.33,3.33,0,0,1-3.06-3.12c-.12-1.07-.35-2.14-.39-3.22-.2-5.9-.32-11.81-.54-17.71a5.27,5.27,0,0,1,2.26-4.71c3.81-2.92,7.6-5.87,11.3-8.92A39.24,39.24,0,0,0,519.4,240Z"/>
        <path class="cls-2" d="M376.26,251c0,5.32.15,10.65-.09,16a8.13,8.13,0,0,1-2,4.8C370.25,276,366,280,361.84,284a2.62,2.62,0,0,1-2,.63c-.33-.05-.74-1-.75-1.61-.08-6.91-.15-13.82-.08-20.73,0-2.41-.47-3.1-2.9-3.26q-10.67-.71-21.33-1.53a2.63,2.63,0,0,1-1.79-.93c-.19-.27.31-1.26.74-1.66,4.49-4.16,9-8.3,13.6-12.34a4,4,0,0,1,2.56-.5c6.31.29,12.62.65,18.92,1,.42,0,.83,0,1.25.08,4.72.55,5.67,1.61,5.66,6.33q0,.75,0,1.5Z"/>
        <path class="cls-2" d="M390.39,280c.53-7.41,1-14.17,1.54-20.92a2.47,2.47,0,0,1,.88-1.45q6.65-5.65,13.35-11.23c1.28-1.07,2.57-2.12,3.9-3.11a3.16,3.16,0,0,1,4.48.16c5.38,4.72,10.89,9.3,16.25,14a4.78,4.78,0,0,1,1.39,3c.29,4.64.4,9.3.51,14,.06,2.59-.78,2.66-3.13,2.44-6.4-.58-8.78-6.42-13.25-9.49a20.75,20.75,0,0,1-1.78-1.73c-3-2.68-3.26-2.56-6.32.1-5.14,4.47-10.41,8.81-15.64,13.18A13.15,13.15,0,0,1,390.39,280Z"/>
        <path class="cls-2" d="M486,245.15c-4.19,4.31-8.22,8.79-12.6,12.89-5.58,5.23-5.82,6.22.14,11.11a70.18,70.18,0,0,1,12,13,7.05,7.05,0,0,1,.67,1.74,9.15,9.15,0,0,1-1.8.39c-4.56.06-9.13,0-13.68.14-3,.09-5.52-.47-7.55-2.89-4.48-5.35-9.07-10.62-13.62-15.92-1.39-1.62-1.52-3,.18-4.69,4.73-4.81,9.28-9.79,13.83-14.77a5.81,5.81,0,0,1,4.59-2c4.47,0,8.93-.31,13.39-.38a26.78,26.78,0,0,1,4,.53Z"/>
      </g>
      <g>
        <path class="cls-1" d="M742.29,240.41c.13,2.13.33,4.25.39,6.39q.18,6.31.23,12.62c0,1.62-.22,3.23-.18,4.85s.9,2.2,2.41,2.31c6.72.49,13.43,1,20.14,1.58a11.14,11.14,0,0,1,2.8,1,12.89,12.89,0,0,1-1.71,2.29q-6.47,5.58-13.07,11a3.67,3.67,0,0,1-2.26.64c-5.05-.13-10.1-.27-15.15-.57-2.56-.15-5.12-.62-7.66-1a3.33,3.33,0,0,1-3.06-3.12c-.12-1.07-.35-2.14-.39-3.22-.2-5.9-.32-11.81-.54-17.71a5.27,5.27,0,0,1,2.26-4.71c3.81-2.92,7.6-5.87,11.3-8.92a39.24,39.24,0,0,0,3.59-3.84Z"/>
        <path class="cls-2" d="M598.25,251c0,5.32.15,10.65-.09,16a8.13,8.13,0,0,1-2,4.8C592.24,276,588,280,583.84,284a2.62,2.62,0,0,1-2,.63c-.33-.05-.74-1-.75-1.61-.08-6.91-.15-13.82-.08-20.73,0-2.41-.47-3.1-2.9-3.26q-10.67-.71-21.33-1.53a2.63,2.63,0,0,1-1.79-.93c-.19-.27.31-1.26.74-1.66,4.49-4.16,9-8.3,13.6-12.34a4,4,0,0,1,2.56-.5c6.31.29,12.62.65,18.92,1,.42,0,.83,0,1.25.08,4.72.55,5.67,1.61,5.66,6.33q0,.75,0,1.5Z"/>
        <path class="cls-2" d="M612.39,280c.53-7.41,1-14.17,1.54-20.92a2.47,2.47,0,0,1,.88-1.45q6.65-5.65,13.35-11.23c1.28-1.07,2.57-2.12,3.9-3.11a3.16,3.16,0,0,1,4.48.16c5.38,4.72,10.89,9.3,16.25,14a4.78,4.78,0,0,1,1.39,3c.29,4.64.4,9.3.51,14,.06,2.59-.78,2.66-3.13,2.44-6.4-.58-8.78-6.42-13.25-9.49a20.75,20.75,0,0,1-1.78-1.73c-3-2.68-3.26-2.56-6.32.1-5.14,4.47-10.41,8.81-15.64,13.18A13.15,13.15,0,0,1,612.39,280Z"/>
        <path class="cls-2" d="M708,245.15c-4.19,4.31-8.22,8.79-12.6,12.89-5.58,5.23-5.82,6.22.14,11.11a70.18,70.18,0,0,1,12,13,7.05,7.05,0,0,1,.67,1.74,9.15,9.15,0,0,1-1.8.39c-4.56.06-9.13,0-13.68.14-3,.09-5.52-.47-7.55-2.89-4.48-5.35-9.07-10.62-13.62-15.92-1.39-1.62-1.52-3,.18-4.69,4.73-4.81,9.28-9.79,13.83-14.77a5.81,5.81,0,0,1,4.59-2c4.47,0,8.93-.31,13.39-.38a26.78,26.78,0,0,1,4,.53Z"/>
      </g>
      <g>
        <path class="cls-1" d="M187.3,179.41c.13,2.13.33,4.25.39,6.39q.18,6.31.23,12.62c0,1.62-.22,3.23-.18,4.85s.9,2.2,2.41,2.31c6.72.49,13.43,1,20.14,1.58a11.14,11.14,0,0,1,2.8,1,12.89,12.89,0,0,1-1.71,2.29q-6.47,5.58-13.07,11a3.67,3.67,0,0,1-2.26.64c-5.05-.13-10.1-.27-15.15-.57-2.56-.15-5.12-.62-7.66-1a3.33,3.33,0,0,1-3.06-3.12c-.12-1.07-.35-2.14-.39-3.22-.2-5.9-.32-11.81-.54-17.71a5.27,5.27,0,0,1,2.26-4.71c3.81-2.92,7.6-5.87,11.3-8.92A39.24,39.24,0,0,0,186.4,179Z"/>
        <path class="cls-2" d="M43.26,190c0,5.32.15,10.65-.09,16a8.13,8.13,0,0,1-2,4.8C37.25,215,33,219,28.85,223a2.62,2.62,0,0,1-2,.63c-.33-.05-.74-1-.75-1.61-.08-6.91-.15-13.82-.08-20.73,0-2.41-.47-3.1-2.9-3.26q-10.67-.71-21.33-1.53A2.63,2.63,0,0,1,0,195.59c-.19-.27.31-1.26.74-1.66,4.49-4.16,9-8.3,13.6-12.34a4,4,0,0,1,2.56-.5c6.31.29,12.62.65,18.92,1,.42,0,.83,0,1.25.08,4.72.55,5.67,1.61,5.66,6.33q0,.75,0,1.5Z"/>
        <path class="cls-2" d="M57.4,219c.53-7.41,1-14.17,1.54-20.92a2.47,2.47,0,0,1,.88-1.45q6.65-5.65,13.35-11.23c1.28-1.07,2.57-2.12,3.9-3.11a3.16,3.16,0,0,1,4.48.16c5.38,4.72,10.89,9.3,16.25,14a4.78,4.78,0,0,1,1.39,3c.29,4.64.4,9.3.51,14,.06,2.59-.78,2.66-3.13,2.44-6.4-.58-8.78-6.42-13.25-9.49a20.75,20.75,0,0,1-1.78-1.73c-3-2.68-3.26-2.56-6.32.1-5.14,4.47-10.41,8.81-15.64,13.18A13.15,13.15,0,0,1,57.4,219Z"/>
        <path class="cls-2" d="M153,184.15c-4.19,4.31-8.22,8.79-12.6,12.89-5.58,5.23-5.82,6.22.14,11.11a70.18,70.18,0,0,1,12,13,7.05,7.05,0,0,1,.67,1.74,9.15,9.15,0,0,1-1.8.39c-4.56.06-9.13,0-13.68.14-3,.09-5.52-.47-7.55-2.89-4.48-5.35-9.07-10.62-13.62-15.92-1.39-1.62-1.52-3,.18-4.69,4.73-4.81,9.28-9.79,13.83-14.77a5.81,5.81,0,0,1,4.59-2c4.47,0,8.93-.31,13.39-.38a26.78,26.78,0,0,1,4,.53Z"/>
      </g>
      <g>
        <path class="cls-1" d="M409.3,179.41c.13,2.13.33,4.25.39,6.39q.18,6.31.23,12.62c0,1.62-.22,3.23-.18,4.85s.9,2.2,2.41,2.31c6.72.49,13.43,1,20.14,1.58a11.14,11.14,0,0,1,2.8,1,12.89,12.89,0,0,1-1.71,2.29q-6.47,5.58-13.07,11a3.67,3.67,0,0,1-2.26.64c-5.05-.13-10.1-.27-15.15-.57-2.56-.15-5.12-.62-7.66-1a3.33,3.33,0,0,1-3.06-3.12c-.12-1.07-.35-2.14-.39-3.22-.2-5.9-.32-11.81-.54-17.71a5.27,5.27,0,0,1,2.26-4.71c3.81-2.92,7.6-5.87,11.3-8.92A39.24,39.24,0,0,0,408.4,179Z"/>
        <path class="cls-2" d="M265.26,190c0,5.32.15,10.65-.09,16a8.13,8.13,0,0,1-2,4.8C259.25,215,255,219,250.85,223a2.62,2.62,0,0,1-2,.63c-.33-.05-.74-1-.75-1.61-.08-6.91-.15-13.82-.08-20.73,0-2.41-.47-3.1-2.9-3.26q-10.67-.71-21.33-1.53a2.63,2.63,0,0,1-1.79-.93c-.19-.27.31-1.26.74-1.66,4.49-4.16,9-8.3,13.6-12.34a4,4,0,0,1,2.56-.5c6.31.29,12.62.65,18.92,1,.42,0,.83,0,1.25.08,4.72.55,5.67,1.61,5.66,6.33q0,.75,0,1.5Z"/>
        <path class="cls-2" d="M279.39,219c.53-7.41,1-14.17,1.54-20.92a2.47,2.47,0,0,1,.88-1.45q6.65-5.65,13.35-11.23c1.28-1.07,2.57-2.12,3.9-3.11a3.16,3.16,0,0,1,4.48.16c5.38,4.72,10.89,9.3,16.25,14a4.78,4.78,0,0,1,1.39,3c.29,4.64.4,9.3.51,14,.06,2.59-.78,2.66-3.13,2.44-6.4-.58-8.78-6.42-13.25-9.49a20.75,20.75,0,0,1-1.78-1.73c-3-2.68-3.26-2.56-6.32.1-5.14,4.47-10.41,8.81-15.64,13.18A13.15,13.15,0,0,1,279.39,219Z"/>
        <path class="cls-2" d="M375,184.15c-4.19,4.31-8.22,8.79-12.6,12.89-5.58,5.23-5.82,6.22.14,11.11a70.18,70.18,0,0,1,12,13,7.05,7.05,0,0,1,.67,1.74,9.15,9.15,0,0,1-1.8.39c-4.56.06-9.13,0-13.68.14-3,.09-5.52-.47-7.55-2.89-4.48-5.35-9.07-10.62-13.62-15.92-1.39-1.62-1.52-3,.18-4.69,4.73-4.81,9.28-9.79,13.83-14.77a5.81,5.81,0,0,1,4.59-2c4.47,0,8.93-.31,13.39-.38a26.78,26.78,0,0,1,4,.53Z"/>
      </g>
      <g>
        <path class="cls-1" d="M631.3,179.41c.13,2.13.33,4.25.39,6.39q.18,6.31.23,12.62c0,1.62-.22,3.23-.18,4.85s.9,2.2,2.41,2.31c6.72.49,13.43,1,20.14,1.58a11.14,11.14,0,0,1,2.8,1,12.89,12.89,0,0,1-1.71,2.29q-6.47,5.58-13.07,11a3.67,3.67,0,0,1-2.26.64c-5.05-.13-10.1-.27-15.15-.57-2.56-.15-5.12-.62-7.66-1a3.33,3.33,0,0,1-3.06-3.12c-.12-1.07-.35-2.14-.39-3.22-.2-5.9-.32-11.81-.54-17.71a5.27,5.27,0,0,1,2.26-4.71c3.81-2.92,7.6-5.87,11.3-8.92A39.24,39.24,0,0,0,630.4,179Z"/>
        <path class="cls-2" d="M487.26,190c0,5.32.15,10.65-.09,16a8.13,8.13,0,0,1-2,4.8C481.25,215,477,219,472.84,223a2.62,2.62,0,0,1-2,.63c-.33-.05-.74-1-.75-1.61-.08-6.91-.15-13.82-.08-20.73,0-2.41-.47-3.1-2.9-3.26q-10.67-.71-21.33-1.53a2.63,2.63,0,0,1-1.79-.93c-.19-.27.31-1.26.74-1.66,4.49-4.16,9-8.3,13.6-12.34a4,4,0,0,1,2.56-.5c6.31.29,12.62.65,18.92,1,.42,0,.83,0,1.25.08,4.72.55,5.67,1.61,5.66,6.33q0,.75,0,1.5Z"/>
        <path class="cls-2" d="M501.39,219c.53-7.41,1-14.17,1.54-20.92a2.47,2.47,0,0,1,.88-1.45q6.65-5.65,13.35-11.23c1.28-1.07,2.57-2.12,3.9-3.11a3.16,3.16,0,0,1,4.48.16c5.38,4.72,10.89,9.3,16.25,14a4.78,4.78,0,0,1,1.39,3c.29,4.64.4,9.3.51,14,.06,2.59-.78,2.66-3.13,2.44-6.4-.58-8.78-6.42-13.25-9.49a20.75,20.75,0,0,1-1.78-1.73c-3-2.68-3.26-2.56-6.32.1-5.14,4.47-10.41,8.81-15.64,13.18A13.15,13.15,0,0,1,501.39,219Z"/>
        <path class="cls-2" d="M597,184.15c-4.19,4.31-8.22,8.79-12.6,12.89-5.58,5.23-5.82,6.22.14,11.11a70.18,70.18,0,0,1,12,13,7.05,7.05,0,0,1,.67,1.74,9.15,9.15,0,0,1-1.8.39c-4.56.06-9.13,0-13.68.14-3,.09-5.52-.47-7.55-2.89-4.48-5.35-9.07-10.62-13.62-15.92-1.39-1.62-1.52-3,.18-4.69,4.73-4.81,9.28-9.79,13.83-14.77a5.81,5.81,0,0,1,4.59-2c4.47,0,8.93-.31,13.39-.38a26.78,26.78,0,0,1,4,.53Z"/>
      </g>
      <g>
        <path class="cls-2" d="M709.25,190c0,5.32.15,10.65-.09,16a8.13,8.13,0,0,1-2,4.8C703.24,215,699,219,694.84,223a2.62,2.62,0,0,1-2,.63c-.33-.05-.74-1-.75-1.61-.08-6.91-.15-13.82-.08-20.73,0-2.41-.47-3.1-2.9-3.26q-10.67-.71-21.33-1.53a2.63,2.63,0,0,1-1.79-.93c-.19-.27.31-1.26.74-1.66,4.49-4.16,9-8.3,13.6-12.34a4,4,0,0,1,2.56-.5c6.31.29,12.62.65,18.92,1,.42,0,.83,0,1.25.08,4.72.55,5.67,1.61,5.66,6.33q0,.75,0,1.5Z"/>
        <path class="cls-2" d="M723.39,219c.53-7.41,1-14.17,1.54-20.92a2.47,2.47,0,0,1,.88-1.45q6.65-5.65,13.35-11.23c1.28-1.07,2.57-2.12,3.9-3.11a3.16,3.16,0,0,1,4.48.16c5.38,4.72,10.89,9.3,16.25,14a4.78,4.78,0,0,1,1.39,3c.29,4.64.4,9.3.51,14,.06,2.59-.78,2.66-3.13,2.44-6.4-.58-8.78-6.42-13.25-9.49a20.75,20.75,0,0,1-1.78-1.73c-3-2.68-3.26-2.56-6.32.1-5.14,4.47-10.41,8.81-15.64,13.18A13.15,13.15,0,0,1,723.39,219Z"/>
      </g>
      <g>
        <path class="cls-1" d="M76.3,120.41c.13,2.13.33,4.25.39,6.39q.18,6.31.23,12.62c0,1.62-.22,3.23-.18,4.85s.9,2.2,2.41,2.31c6.72.49,13.43,1,20.14,1.58a11.14,11.14,0,0,1,2.8,1,12.89,12.89,0,0,1-1.71,2.29q-6.47,5.58-13.07,11a3.67,3.67,0,0,1-2.26.64c-5.05-.13-10.1-.27-15.15-.57-2.56-.15-5.12-.62-7.66-1a3.33,3.33,0,0,1-3.06-3.12c-.12-1.07-.35-2.14-.39-3.22-.2-5.9-.32-11.81-.54-17.71a5.27,5.27,0,0,1,2.26-4.71c3.81-2.92,7.6-5.87,11.3-8.92A39.24,39.24,0,0,0,75.4,120Z"/>
        <path class="cls-2" d="M42,125.15c-4.19,4.31-8.22,8.79-12.6,12.89-5.58,5.23-5.82,6.22.14,11.11a70.18,70.18,0,0,1,12,13,7.05,7.05,0,0,1,.67,1.74,9.15,9.15,0,0,1-1.8.39c-4.56.06-9.13,0-13.68.14-3,.09-5.52-.47-7.55-2.89-4.48-5.35-9.07-10.62-13.62-15.92-1.39-1.62-1.52-3,.18-4.69,4.73-4.81,9.28-9.79,13.83-14.77a5.81,5.81,0,0,1,4.59-2c4.47,0,8.93-.31,13.39-.38a26.78,26.78,0,0,1,4,.53Z"/>
      </g>
      <g>
        <path class="cls-1" d="M298.3,120.41c.13,2.13.33,4.25.39,6.39q.18,6.31.23,12.62c0,1.62-.22,3.23-.18,4.85s.9,2.2,2.41,2.31c6.72.49,13.43,1,20.14,1.58a11.14,11.14,0,0,1,2.8,1,12.89,12.89,0,0,1-1.71,2.29q-6.47,5.58-13.07,11a3.67,3.67,0,0,1-2.26.64c-5.05-.13-10.1-.27-15.15-.57-2.56-.15-5.12-.62-7.66-1a3.33,3.33,0,0,1-3.06-3.12c-.12-1.07-.35-2.14-.39-3.22-.2-5.9-.32-11.81-.54-17.71a5.27,5.27,0,0,1,2.26-4.71c3.81-2.92,7.6-5.87,11.3-8.92A39.24,39.24,0,0,0,297.4,120Z"/>
        <path class="cls-2" d="M154.26,131c0,5.32.15,10.65-.09,16a8.13,8.13,0,0,1-2,4.8C148.25,156,144,160,139.85,164a2.62,2.62,0,0,1-2,.63c-.33-.05-.74-1-.75-1.61-.08-6.91-.15-13.82-.08-20.73,0-2.41-.47-3.1-2.9-3.26q-10.67-.71-21.33-1.53a2.63,2.63,0,0,1-1.79-.93c-.19-.27.31-1.26.74-1.66,4.49-4.16,9-8.3,13.6-12.34a4,4,0,0,1,2.56-.5c6.31.29,12.62.65,18.92,1,.42,0,.83,0,1.25.08,4.72.55,5.67,1.61,5.66,6.33q0,.75,0,1.5Z"/>
        <path class="cls-2" d="M168.39,160c.53-7.41,1-14.17,1.54-20.92a2.47,2.47,0,0,1,.88-1.45q6.65-5.65,13.35-11.23c1.28-1.07,2.57-2.12,3.9-3.11a3.16,3.16,0,0,1,4.48.16c5.38,4.72,10.89,9.3,16.25,14a4.78,4.78,0,0,1,1.39,3c.29,4.64.4,9.3.51,14,.06,2.59-.78,2.66-3.13,2.44-6.4-.58-8.78-6.42-13.25-9.49a20.75,20.75,0,0,1-1.78-1.73c-3-2.68-3.26-2.56-6.32.1-5.14,4.47-10.41,8.81-15.64,13.18A13.15,13.15,0,0,1,168.39,160Z"/>
        <path class="cls-2" d="M264,125.15c-4.19,4.31-8.22,8.79-12.6,12.89-5.58,5.23-5.82,6.22.14,11.11a70.18,70.18,0,0,1,12,13,7.05,7.05,0,0,1,.67,1.74,9.15,9.15,0,0,1-1.8.39c-4.56.06-9.13,0-13.68.14-3,.09-5.52-.47-7.55-2.89-4.48-5.35-9.07-10.62-13.62-15.92-1.39-1.62-1.52-3,.18-4.69,4.73-4.81,9.28-9.79,13.83-14.77a5.81,5.81,0,0,1,4.59-2c4.47,0,8.93-.31,13.39-.38a26.78,26.78,0,0,1,4,.53Z"/>
      </g>
      <g>
        <path class="cls-1" d="M520.3,120.41c.13,2.13.33,4.25.39,6.39q.18,6.31.23,12.62c0,1.62-.22,3.23-.18,4.85s.9,2.2,2.41,2.31c6.72.49,13.43,1,20.14,1.58a11.14,11.14,0,0,1,2.8,1,12.89,12.89,0,0,1-1.71,2.29q-6.47,5.58-13.07,11a3.67,3.67,0,0,1-2.26.64c-5.05-.13-10.1-.27-15.15-.57-2.56-.15-5.12-.62-7.66-1a3.33,3.33,0,0,1-3.06-3.12c-.12-1.07-.35-2.14-.39-3.22-.2-5.9-.32-11.81-.54-17.71a5.27,5.27,0,0,1,2.26-4.71c3.81-2.92,7.6-5.87,11.3-8.92A39.24,39.24,0,0,0,519.4,120Z"/>
        <path class="cls-2" d="M376.26,131c0,5.32.15,10.65-.09,16a8.13,8.13,0,0,1-2,4.8C370.25,156,366,160,361.84,164a2.62,2.62,0,0,1-2,.63c-.33-.05-.74-1-.75-1.61-.08-6.91-.15-13.82-.08-20.73,0-2.41-.47-3.1-2.9-3.26q-10.67-.71-21.33-1.53a2.63,2.63,0,0,1-1.79-.93c-.19-.27.31-1.26.74-1.66,4.49-4.16,9-8.3,13.6-12.34a4,4,0,0,1,2.56-.5c6.31.29,12.62.65,18.92,1,.42,0,.83,0,1.25.08,4.72.55,5.67,1.61,5.66,6.33q0,.75,0,1.5Z"/>
        <path class="cls-2" d="M390.39,160c.53-7.41,1-14.17,1.54-20.92a2.47,2.47,0,0,1,.88-1.45q6.65-5.65,13.35-11.23c1.28-1.07,2.57-2.12,3.9-3.11a3.16,3.16,0,0,1,4.48.16c5.38,4.72,10.89,9.3,16.25,14a4.78,4.78,0,0,1,1.39,3c.29,4.64.4,9.3.51,14,.06,2.59-.78,2.66-3.13,2.44-6.4-.58-8.78-6.42-13.25-9.49a20.75,20.75,0,0,1-1.78-1.73c-3-2.68-3.26-2.56-6.32.1-5.14,4.47-10.41,8.81-15.64,13.18A13.15,13.15,0,0,1,390.39,160Z"/>
        <path class="cls-2" d="M486,125.15c-4.19,4.31-8.22,8.79-12.6,12.89-5.58,5.23-5.82,6.22.14,11.11a70.18,70.18,0,0,1,12,13,7.05,7.05,0,0,1,.67,1.74,9.15,9.15,0,0,1-1.8.39c-4.56.06-9.13,0-13.68.14-3,.09-5.52-.47-7.55-2.89-4.48-5.35-9.07-10.62-13.62-15.92-1.39-1.62-1.52-3,.18-4.69,4.73-4.81,9.28-9.79,13.83-14.77a5.81,5.81,0,0,1,4.59-2c4.47,0,8.93-.31,13.39-.38a26.78,26.78,0,0,1,4,.53Z"/>
      </g>
      <g>
        <path class="cls-1" d="M742.29,120.41c.13,2.13.33,4.25.39,6.39q.18,6.31.23,12.62c0,1.62-.22,3.23-.18,4.85s.9,2.2,2.41,2.31c6.72.49,13.43,1,20.14,1.58a11.14,11.14,0,0,1,2.8,1,12.89,12.89,0,0,1-1.71,2.29q-6.47,5.58-13.07,11a3.67,3.67,0,0,1-2.26.64c-5.05-.13-10.1-.27-15.15-.57-2.56-.15-5.12-.62-7.66-1a3.33,3.33,0,0,1-3.06-3.12c-.12-1.07-.35-2.14-.39-3.22-.2-5.9-.32-11.81-.54-17.71a5.27,5.27,0,0,1,2.26-4.71c3.81-2.92,7.6-5.87,11.3-8.92a39.24,39.24,0,0,0,3.59-3.84Z"/>
        <path class="cls-2" d="M598.25,131c0,5.32.15,10.65-.09,16a8.13,8.13,0,0,1-2,4.8C592.24,156,588,160,583.84,164a2.62,2.62,0,0,1-2,.63c-.33-.05-.74-1-.75-1.61-.08-6.91-.15-13.82-.08-20.73,0-2.41-.47-3.1-2.9-3.26q-10.67-.71-21.33-1.53a2.63,2.63,0,0,1-1.79-.93c-.19-.27.31-1.26.74-1.66,4.49-4.16,9-8.3,13.6-12.34a4,4,0,0,1,2.56-.5c6.31.29,12.62.65,18.92,1,.42,0,.83,0,1.25.08,4.72.55,5.67,1.61,5.66,6.33q0,.75,0,1.5Z"/>
        <path class="cls-2" d="M612.39,160c.53-7.41,1-14.17,1.54-20.92a2.47,2.47,0,0,1,.88-1.45q6.65-5.65,13.35-11.23c1.28-1.07,2.57-2.12,3.9-3.11a3.16,3.16,0,0,1,4.48.16c5.38,4.72,10.89,9.3,16.25,14a4.78,4.78,0,0,1,1.39,3c.29,4.64.4,9.3.51,14,.06,2.59-.78,2.66-3.13,2.44-6.4-.58-8.78-6.42-13.25-9.49a20.75,20.75,0,0,1-1.78-1.73c-3-2.68-3.26-2.56-6.32.1-5.14,4.47-10.41,8.81-15.64,13.18A13.15,13.15,0,0,1,612.39,160Z"/>
        <path class="cls-2" d="M708,125.15c-4.19,4.31-8.22,8.79-12.6,12.89-5.58,5.23-5.82,6.22.14,11.11a70.18,70.18,0,0,1,12,13,7.05,7.05,0,0,1,.67,1.74,9.15,9.15,0,0,1-1.8.39c-4.56.06-9.13,0-13.68.14-3,.09-5.52-.47-7.55-2.89-4.48-5.35-9.07-10.62-13.62-15.92-1.39-1.62-1.52-3,.18-4.69,4.73-4.81,9.28-9.79,13.83-14.77a5.81,5.81,0,0,1,4.59-2c4.47,0,8.93-.31,13.39-.38a26.78,26.78,0,0,1,4,.53Z"/>
      </g>
      <g>
        <path class="cls-1" d="M187.3,59.41c.13,2.13.33,4.25.39,6.39q.18,6.31.23,12.62c0,1.62-.22,3.23-.18,4.85s.9,2.2,2.41,2.31c6.72.49,13.43,1,20.14,1.58a11.14,11.14,0,0,1,2.8,1,12.89,12.89,0,0,1-1.71,2.29q-6.47,5.58-13.07,11a3.67,3.67,0,0,1-2.26.64c-5.05-.13-10.1-.27-15.15-.57-2.56-.15-5.12-.62-7.66-1a3.33,3.33,0,0,1-3.06-3.12c-.12-1.07-.35-2.14-.39-3.22-.2-5.9-.32-11.81-.54-17.71a5.27,5.27,0,0,1,2.26-4.71c3.81-2.92,7.6-5.87,11.3-8.92A39.24,39.24,0,0,0,186.4,59Z"/>
        <path class="cls-2" d="M43.26,70c0,5.32.15,10.65-.09,16a8.13,8.13,0,0,1-2,4.8C37.25,95,33,99,28.85,103a2.62,2.62,0,0,1-2,.63c-.33-.05-.74-1-.75-1.61-.08-6.91-.15-13.82-.08-20.73,0-2.41-.47-3.1-2.9-3.26q-10.67-.71-21.33-1.53A2.63,2.63,0,0,1,0,75.59c-.19-.27.31-1.26.74-1.66,4.49-4.16,9-8.3,13.6-12.34a4,4,0,0,1,2.56-.5c6.31.29,12.62.65,18.92,1,.42,0,.83,0,1.25.08,4.72.55,5.67,1.61,5.66,6.33q0,.75,0,1.5Z"/>
        <path class="cls-2" d="M57.4,99c.53-7.41,1-14.17,1.54-20.92a2.47,2.47,0,0,1,.88-1.45Q66.46,71,73.17,65.42c1.28-1.07,2.57-2.12,3.9-3.11a3.16,3.16,0,0,1,4.48.16c5.38,4.72,10.89,9.3,16.25,14a4.78,4.78,0,0,1,1.39,3c.29,4.64.4,9.3.51,14,.06,2.59-.78,2.66-3.13,2.44-6.4-.58-8.78-6.42-13.25-9.49a20.75,20.75,0,0,1-1.78-1.73c-3-2.68-3.26-2.56-6.32.1C70.07,89.26,64.81,93.59,59.57,98A13.15,13.15,0,0,1,57.4,99Z"/>
        <path class="cls-2" d="M153,64.15c-4.19,4.31-8.22,8.79-12.6,12.89-5.58,5.23-5.82,6.22.14,11.11a70.18,70.18,0,0,1,12,13,7.05,7.05,0,0,1,.67,1.74,9.15,9.15,0,0,1-1.8.39c-4.56.06-9.13,0-13.68.14-3,.09-5.52-.47-7.55-2.89-4.48-5.35-9.07-10.62-13.62-15.92-1.39-1.62-1.52-3,.18-4.69,4.73-4.81,9.28-9.79,13.83-14.77a5.81,5.81,0,0,1,4.59-2c4.47,0,8.93-.31,13.39-.38a26.78,26.78,0,0,1,4,.53Z"/>
      </g>
      <g>
        <path class="cls-1" d="M409.3,59.41c.13,2.13.33,4.25.39,6.39q.18,6.31.23,12.62c0,1.62-.22,3.23-.18,4.85s.9,2.2,2.41,2.31c6.72.49,13.43,1,20.14,1.58a11.14,11.14,0,0,1,2.8,1,12.89,12.89,0,0,1-1.71,2.29q-6.47,5.58-13.07,11a3.67,3.67,0,0,1-2.26.64c-5.05-.13-10.1-.27-15.15-.57-2.56-.15-5.12-.62-7.66-1a3.33,3.33,0,0,1-3.06-3.12c-.12-1.07-.35-2.14-.39-3.22-.2-5.9-.32-11.81-.54-17.71a5.27,5.27,0,0,1,2.26-4.71c3.81-2.92,7.6-5.87,11.3-8.92A39.24,39.24,0,0,0,408.4,59Z"/>
        <path class="cls-2" d="M265.26,70c0,5.32.15,10.65-.09,16a8.13,8.13,0,0,1-2,4.8C259.25,95,255,99,250.85,103a2.62,2.62,0,0,1-2,.63c-.33-.05-.74-1-.75-1.61-.08-6.91-.15-13.82-.08-20.73,0-2.41-.47-3.1-2.9-3.26q-10.67-.71-21.33-1.53a2.63,2.63,0,0,1-1.79-.93c-.19-.27.31-1.26.74-1.66,4.49-4.16,9-8.3,13.6-12.34a4,4,0,0,1,2.56-.5c6.31.29,12.62.65,18.92,1,.42,0,.83,0,1.25.08,4.72.55,5.67,1.61,5.66,6.33q0,.75,0,1.5Z"/>
        <path class="cls-2" d="M279.39,99c.53-7.41,1-14.17,1.54-20.92a2.47,2.47,0,0,1,.88-1.45q6.65-5.65,13.35-11.23c1.28-1.07,2.57-2.12,3.9-3.11a3.16,3.16,0,0,1,4.48.16c5.38,4.72,10.89,9.3,16.25,14a4.78,4.78,0,0,1,1.39,3c.29,4.64.4,9.3.51,14,.06,2.59-.78,2.66-3.13,2.44-6.4-.58-8.78-6.42-13.25-9.49a20.75,20.75,0,0,1-1.78-1.73c-3-2.68-3.26-2.56-6.32.1-5.14,4.47-10.41,8.81-15.64,13.18A13.15,13.15,0,0,1,279.39,99Z"/>
        <path class="cls-2" d="M375,64.15c-4.19,4.31-8.22,8.79-12.6,12.89-5.58,5.23-5.82,6.22.14,11.11a70.18,70.18,0,0,1,12,13,7.05,7.05,0,0,1,.67,1.74,9.15,9.15,0,0,1-1.8.39c-4.56.06-9.13,0-13.68.14-3,.09-5.52-.47-7.55-2.89-4.48-5.35-9.07-10.62-13.62-15.92-1.39-1.62-1.52-3,.18-4.69,4.73-4.81,9.28-9.79,13.83-14.77a5.81,5.81,0,0,1,4.59-2c4.47,0,8.93-.31,13.39-.38a26.78,26.78,0,0,1,4,.53Z"/>
      </g>
      <g>
        <path class="cls-1" d="M631.3,59.41c.13,2.13.33,4.25.39,6.39q.18,6.31.23,12.62c0,1.62-.22,3.23-.18,4.85s.9,2.2,2.41,2.31c6.72.49,13.43,1,20.14,1.58a11.14,11.14,0,0,1,2.8,1,12.89,12.89,0,0,1-1.71,2.29q-6.47,5.58-13.07,11a3.67,3.67,0,0,1-2.26.64c-5.05-.13-10.1-.27-15.15-.57-2.56-.15-5.12-.62-7.66-1a3.33,3.33,0,0,1-3.06-3.12c-.12-1.07-.35-2.14-.39-3.22-.2-5.9-.32-11.81-.54-17.71a5.27,5.27,0,0,1,2.26-4.71c3.81-2.92,7.6-5.87,11.3-8.92A39.24,39.24,0,0,0,630.4,59Z"/>
        <path class="cls-2" d="M487.26,70c0,5.32.15,10.65-.09,16a8.13,8.13,0,0,1-2,4.8C481.25,95,477,99,472.84,103a2.62,2.62,0,0,1-2,.63c-.33-.05-.74-1-.75-1.61-.08-6.91-.15-13.82-.08-20.73,0-2.41-.47-3.1-2.9-3.26q-10.67-.71-21.33-1.53a2.63,2.63,0,0,1-1.79-.93c-.19-.27.31-1.26.74-1.66,4.49-4.16,9-8.3,13.6-12.34a4,4,0,0,1,2.56-.5c6.31.29,12.62.65,18.92,1,.42,0,.83,0,1.25.08,4.72.55,5.67,1.61,5.66,6.33q0,.75,0,1.5Z"/>
        <path class="cls-2" d="M501.39,99c.53-7.41,1-14.17,1.54-20.92a2.47,2.47,0,0,1,.88-1.45q6.65-5.65,13.35-11.23c1.28-1.07,2.57-2.12,3.9-3.11a3.16,3.16,0,0,1,4.48.16c5.38,4.72,10.89,9.3,16.25,14a4.78,4.78,0,0,1,1.39,3c.29,4.64.4,9.3.51,14,.06,2.59-.78,2.66-3.13,2.44-6.4-.58-8.78-6.42-13.25-9.49a20.75,20.75,0,0,1-1.78-1.73c-3-2.68-3.26-2.56-6.32.1-5.14,4.47-10.41,8.81-15.64,13.18A13.15,13.15,0,0,1,501.39,99Z"/>
        <path class="cls-2" d="M597,64.15c-4.19,4.31-8.22,8.79-12.6,12.89-5.58,5.23-5.82,6.22.14,11.11a70.18,70.18,0,0,1,12,13,7.05,7.05,0,0,1,.67,1.74,9.15,9.15,0,0,1-1.8.39c-4.56.06-9.13,0-13.68.14-3,.09-5.52-.47-7.55-2.89-4.48-5.35-9.07-10.62-13.62-15.92-1.39-1.62-1.52-3,.18-4.69,4.73-4.81,9.28-9.79,13.83-14.77a5.81,5.81,0,0,1,4.59-2c4.47,0,8.93-.31,13.39-.38a26.78,26.78,0,0,1,4,.53Z"/>
      </g>
      <g>
        <path class="cls-2" d="M709.25,70c0,5.32.15,10.65-.09,16a8.13,8.13,0,0,1-2,4.8C703.24,95,699,99,694.84,103a2.62,2.62,0,0,1-2,.63c-.33-.05-.74-1-.75-1.61-.08-6.91-.15-13.82-.08-20.73,0-2.41-.47-3.1-2.9-3.26q-10.67-.71-21.33-1.53a2.63,2.63,0,0,1-1.79-.93c-.19-.27.31-1.26.74-1.66,4.49-4.16,9-8.3,13.6-12.34a4,4,0,0,1,2.56-.5c6.31.29,12.62.65,18.92,1,.42,0,.83,0,1.25.08,4.72.55,5.67,1.61,5.66,6.33q0,.75,0,1.5Z"/>
        <path class="cls-2" d="M723.39,99c.53-7.41,1-14.17,1.54-20.92a2.47,2.47,0,0,1,.88-1.45q6.65-5.65,13.35-11.23c1.28-1.07,2.57-2.12,3.9-3.11a3.16,3.16,0,0,1,4.48.16c5.38,4.72,10.89,9.3,16.25,14a4.78,4.78,0,0,1,1.39,3c.29,4.64.4,9.3.51,14,.06,2.59-.78,2.66-3.13,2.44-6.4-.58-8.78-6.42-13.25-9.49a20.75,20.75,0,0,1-1.78-1.73c-3-2.68-3.26-2.56-6.32.1-5.14,4.47-10.41,8.81-15.64,13.18A13.15,13.15,0,0,1,723.39,99Z"/>
      </g>
      <g>
        <path class="cls-1" d="M76.3.41c.13,2.13.33,4.25.39,6.39q.18,6.31.23,12.62c0,1.62-.22,3.23-.18,4.85s.9,2.2,2.41,2.31c6.72.49,13.43,1,20.14,1.58a11.14,11.14,0,0,1,2.8,1,12.89,12.89,0,0,1-1.71,2.29q-6.47,5.58-13.07,11a3.67,3.67,0,0,1-2.26.64c-5.05-.13-10.1-.27-15.15-.57-2.56-.15-5.12-.62-7.66-1a3.33,3.33,0,0,1-3.06-3.12c-.12-1.07-.35-2.14-.39-3.22-.2-5.9-.32-11.81-.54-17.71a5.27,5.27,0,0,1,2.26-4.71c3.81-2.92,7.6-5.87,11.3-8.92A39.24,39.24,0,0,0,75.4,0Z"/>
        <path class="cls-2" d="M42,5.15C37.78,9.46,33.75,13.94,29.37,18c-5.58,5.23-5.82,6.22.14,11.11a70.18,70.18,0,0,1,12,13,7.05,7.05,0,0,1,.67,1.74,9.15,9.15,0,0,1-1.8.39c-4.56.06-9.13,0-13.68.14-3,.09-5.52-.47-7.55-2.89-4.48-5.35-9.07-10.62-13.62-15.92-1.39-1.62-1.52-3,.18-4.69C10.44,16,15,11.06,19.54,6.08a5.81,5.81,0,0,1,4.59-2c4.47,0,8.93-.31,13.39-.38a26.78,26.78,0,0,1,4,.53Z"/>
      </g>
      <g>
        <path class="cls-1" d="M298.3.41c.13,2.13.33,4.25.39,6.39q.18,6.31.23,12.62c0,1.62-.22,3.23-.18,4.85s.9,2.2,2.41,2.31c6.72.49,13.43,1,20.14,1.58a11.14,11.14,0,0,1,2.8,1,12.89,12.89,0,0,1-1.71,2.29q-6.47,5.58-13.07,11a3.67,3.67,0,0,1-2.26.64c-5.05-.13-10.1-.27-15.15-.57-2.56-.15-5.12-.62-7.66-1a3.33,3.33,0,0,1-3.06-3.12c-.12-1.07-.35-2.14-.39-3.22-.2-5.9-.32-11.81-.54-17.71a5.27,5.27,0,0,1,2.26-4.71c3.81-2.92,7.6-5.87,11.3-8.92A39.24,39.24,0,0,0,297.4,0Z"/>
        <path class="cls-2" d="M154.26,11c0,5.32.15,10.65-.09,16a8.13,8.13,0,0,1-2,4.8C148.25,36,144,40,139.85,44a2.62,2.62,0,0,1-2,.63c-.33-.05-.74-1-.75-1.61-.08-6.91-.15-13.82-.08-20.73,0-2.41-.47-3.1-2.9-3.26q-10.67-.71-21.33-1.53a2.63,2.63,0,0,1-1.79-.93c-.19-.27.31-1.26.74-1.66,4.49-4.16,9-8.3,13.6-12.34a4,4,0,0,1,2.56-.5c6.31.29,12.62.65,18.92,1,.42,0,.83,0,1.25.08,4.72.55,5.67,1.61,5.66,6.33q0,.75,0,1.5Z"/>
        <path class="cls-2" d="M168.39,40c.53-7.41,1-14.17,1.54-20.92a2.47,2.47,0,0,1,.88-1.45Q177.46,12,184.16,6.42c1.28-1.07,2.57-2.12,3.9-3.11a3.16,3.16,0,0,1,4.48.16c5.38,4.72,10.89,9.3,16.25,14a4.78,4.78,0,0,1,1.39,3c.29,4.64.4,9.3.51,14,.06,2.59-.78,2.66-3.13,2.44-6.4-.58-8.78-6.42-13.25-9.49a20.75,20.75,0,0,1-1.78-1.73c-3-2.68-3.26-2.56-6.32.1-5.14,4.47-10.41,8.81-15.64,13.18A13.15,13.15,0,0,1,168.39,40Z"/>
        <path class="cls-2" d="M264,5.15c-4.19,4.31-8.22,8.79-12.6,12.89-5.58,5.23-5.82,6.22.14,11.11a70.18,70.18,0,0,1,12,13,7.05,7.05,0,0,1,.67,1.74,9.15,9.15,0,0,1-1.8.39c-4.56.06-9.13,0-13.68.14-3,.09-5.52-.47-7.55-2.89-4.48-5.35-9.07-10.62-13.62-15.92-1.39-1.62-1.52-3,.18-4.69C232.44,16,237,11.06,241.54,6.08a5.81,5.81,0,0,1,4.59-2c4.47,0,8.93-.31,13.39-.38a26.78,26.78,0,0,1,4,.53Z"/>
      </g>
      <g>
        <path class="cls-1" d="M520.3.41c.13,2.13.33,4.25.39,6.39q.18,6.31.23,12.62c0,1.62-.22,3.23-.18,4.85s.9,2.2,2.41,2.31c6.72.49,13.43,1,20.14,1.58a11.14,11.14,0,0,1,2.8,1,12.89,12.89,0,0,1-1.71,2.29q-6.47,5.58-13.07,11a3.67,3.67,0,0,1-2.26.64c-5.05-.13-10.1-.27-15.15-.57-2.56-.15-5.12-.62-7.66-1a3.33,3.33,0,0,1-3.06-3.12c-.12-1.07-.35-2.14-.39-3.22-.2-5.9-.32-11.81-.54-17.71a5.27,5.27,0,0,1,2.26-4.71c3.81-2.92,7.6-5.87,11.3-8.92A39.24,39.24,0,0,0,519.4,0Z"/>
        <path class="cls-2" d="M376.26,11c0,5.32.15,10.65-.09,16a8.13,8.13,0,0,1-2,4.8C370.25,36,366,40,361.84,44a2.62,2.62,0,0,1-2,.63c-.33-.05-.74-1-.75-1.61-.08-6.91-.15-13.82-.08-20.73,0-2.41-.47-3.1-2.9-3.26q-10.67-.71-21.33-1.53a2.63,2.63,0,0,1-1.79-.93c-.19-.27.31-1.26.74-1.66,4.49-4.16,9-8.3,13.6-12.34a4,4,0,0,1,2.56-.5c6.31.29,12.62.65,18.92,1,.42,0,.83,0,1.25.08,4.72.55,5.67,1.61,5.66,6.33q0,.75,0,1.5Z"/>
        <path class="cls-2" d="M390.39,40c.53-7.41,1-14.17,1.54-20.92a2.47,2.47,0,0,1,.88-1.45Q399.45,12,406.16,6.42c1.28-1.07,2.57-2.12,3.9-3.11a3.16,3.16,0,0,1,4.48.16c5.38,4.72,10.89,9.3,16.25,14a4.78,4.78,0,0,1,1.39,3c.29,4.64.4,9.3.51,14,.06,2.59-.78,2.66-3.13,2.44-6.4-.58-8.78-6.42-13.25-9.49a20.75,20.75,0,0,1-1.78-1.73c-3-2.68-3.26-2.56-6.32.1-5.14,4.47-10.41,8.81-15.64,13.18A13.15,13.15,0,0,1,390.39,40Z"/>
        <path class="cls-2" d="M486,5.15c-4.19,4.31-8.22,8.79-12.6,12.89-5.58,5.23-5.82,6.22.14,11.11a70.18,70.18,0,0,1,12,13,7.05,7.05,0,0,1,.67,1.74,9.15,9.15,0,0,1-1.8.39c-4.56.06-9.13,0-13.68.14-3,.09-5.52-.47-7.55-2.89-4.48-5.35-9.07-10.62-13.62-15.92-1.39-1.62-1.52-3,.18-4.69C454.44,16,459,11.06,463.53,6.08a5.81,5.81,0,0,1,4.59-2c4.47,0,8.93-.31,13.39-.38a26.78,26.78,0,0,1,4,.53Z"/>
      </g>
      <g>
        <path class="cls-1" d="M742.29.41c.13,2.13.33,4.25.39,6.39q.18,6.31.23,12.62c0,1.62-.22,3.23-.18,4.85s.9,2.2,2.41,2.31c6.72.49,13.43,1,20.14,1.58a11.14,11.14,0,0,1,2.8,1,12.89,12.89,0,0,1-1.71,2.29q-6.47,5.58-13.07,11a3.67,3.67,0,0,1-2.26.64c-5.05-.13-10.1-.27-15.15-.57-2.56-.15-5.12-.62-7.66-1a3.33,3.33,0,0,1-3.06-3.12c-.12-1.07-.35-2.14-.39-3.22-.2-5.9-.32-11.81-.54-17.71a5.27,5.27,0,0,1,2.26-4.71c3.81-2.92,7.6-5.87,11.3-8.92A39.24,39.24,0,0,0,741.39,0Z"/>
        <path class="cls-2" d="M598.25,11c0,5.32.15,10.65-.09,16a8.13,8.13,0,0,1-2,4.8C592.24,36,588,40,583.84,44a2.62,2.62,0,0,1-2,.63c-.33-.05-.74-1-.75-1.61-.08-6.91-.15-13.82-.08-20.73,0-2.41-.47-3.1-2.9-3.26q-10.67-.71-21.33-1.53a2.63,2.63,0,0,1-1.79-.93c-.19-.27.31-1.26.74-1.66,4.49-4.16,9-8.3,13.6-12.34a4,4,0,0,1,2.56-.5c6.31.29,12.62.65,18.92,1,.42,0,.83,0,1.25.08,4.72.55,5.67,1.61,5.66,6.33q0,.75,0,1.5Z"/>
        <path class="cls-2" d="M612.39,40c.53-7.41,1-14.17,1.54-20.92a2.47,2.47,0,0,1,.88-1.45Q621.45,12,628.16,6.42c1.28-1.07,2.57-2.12,3.9-3.11a3.16,3.16,0,0,1,4.48.16c5.38,4.72,10.89,9.3,16.25,14a4.78,4.78,0,0,1,1.39,3c.29,4.64.4,9.3.51,14,.06,2.59-.78,2.66-3.13,2.44-6.4-.58-8.78-6.42-13.25-9.49a20.75,20.75,0,0,1-1.78-1.73c-3-2.68-3.26-2.56-6.32.1-5.14,4.47-10.41,8.81-15.64,13.18A13.15,13.15,0,0,1,612.39,40Z"/>
        <path class="cls-2" d="M708,5.15c-4.19,4.31-8.22,8.79-12.6,12.89-5.58,5.23-5.82,6.22.14,11.11a70.18,70.18,0,0,1,12,13,7.05,7.05,0,0,1,.67,1.74,9.15,9.15,0,0,1-1.8.39c-4.56.06-9.13,0-13.68.14-3,.09-5.52-.47-7.55-2.89-4.48-5.35-9.07-10.62-13.62-15.92-1.39-1.62-1.52-3,.18-4.69C676.43,16,681,11.06,685.53,6.08a5.81,5.81,0,0,1,4.59-2c4.47,0,8.93-.31,13.39-.38a26.78,26.78,0,0,1,4,.53Z"/>
      </g>
    </g>
  </g>
</svg>
