<svg xmlns="http://www.w3.org/2000/svg" viewBox="0 0 96.06 90.06">
  <defs>
    <style>
      .cls-1 {
        fill: #fdfefd;
      }

      .cls-2 {
        fill: #1da492;
      }
    </style>
  </defs>
  <title>user</title>
  <g id="Layer_2" data-name="Layer 2">
    <g id="Layer_1-2" data-name="Layer 1">
      <g>
        <path class="cls-1" d="M48,90c-15.5,0-31,0-46.5,0C.28,90.07,0,89.78,0,88.53Q.06,45,0,1.53C0,.28.28,0,1.53,0q46.5.06,93,0c1.25,0,1.53.28,1.53,1.53q-.06,43.5,0,87c0,1.25-.28,1.54-1.53,1.53C79,90,63.53,90,48,90ZM29.89,61.53c-.84,2.71.59,4.87,3.6,6.23a1.94,1.94,0,0,1,.42.27c1.73,1.41,3.5,2.69,5.87,2.72a5.63,5.63,0,0,1,1.16.37c1,.25,2.07.81,3,.66a48.33,48.33,0,0,0,9.58-2.3c2.78-1,4.16-3.41,6.36-4.94a1.34,1.34,0,0,0,.26-1.1c-.54-3.08.37-6.32-1.59-9.28-.75-1.13-.81-2.82-1.43-4.28-2.62-6.16-8-7.75-13.7-9.1a1.58,1.58,0,0,0-1,.08c-1.32.64-2.63,1.29-3.9,2A7.16,7.16,0,0,0,36,44.66c-2,3.14-4.75,6-4.78,10a.75.75,0,0,1-.12.47C29.52,56.84,30,58.9,29.89,61.53Zm16,16.38a16.47,16.47,0,0,0-2.49,0,4.57,4.57,0,0,0-1.37.75,9.68,9.68,0,0,0,1.1,1.73c.22.23.79.19,1.2.19,2.75,0,5.5,0,8.24,0A2.36,2.36,0,0,0,54,80.26a9.45,9.45,0,0,1,5.86-2.16,3.75,3.75,0,0,0,1.8-.66,7.7,7.7,0,0,1,4.73-1.26c.26,0,.65-.39.79-.69s.06-1.07.34-1.41c2.64-3.25,5.36-6.43,8-9.68s4.17-6.83,5.89-10.45a2.39,2.39,0,0,0,.12-1q0-5.48,0-11,0-3.58-.07-7.16a5.57,5.57,0,0,0-.22-2.44q-2.9-5.22-6-10.3C72.46,17.68,67.69,15.44,64,12a6.65,6.65,0,0,0-3.37-1.69A22.64,22.64,0,0,1,54.27,9c-2.26-1-5-1-7.55-1.09a25.84,25.84,0,0,0-12.43,2.82c-4.48,2.15-9,4.39-12.4,8.27a32.83,32.83,0,0,0-6.49,9.85,24.72,24.72,0,0,1-1.89,4.75c-1.51,2.34-.81,4.84-1,7.28,0,.24.45.61.77.74.13.05.6-.31.67-.56.55-1.78,1-3.58,1.55-5.38a5.53,5.53,0,0,1,.33-1.44c1.87-3,2.53-6.54,5.18-9.14,2.11-2.06,3.68-4.66,5.68-6.83a13.88,13.88,0,0,1,3.41-2.2,24.57,24.57,0,0,0,4-2.21c1.51-1.31,3.21-1.5,5-2a15.32,15.32,0,0,1,6.69-.17c2.12.27,4.3,0,6.45.1a5.36,5.36,0,0,1,1.91.44c1.74.74,3.43,1.61,5.17,2.35A43.83,43.83,0,0,1,69.8,21.27a19.76,19.76,0,0,1,4.33,5.56,45.62,45.62,0,0,1,4.28,11.4c.61,2.49,1.46,5.21.35,8a3,3,0,0,0,.62,2.29c.67,1,.48,1.49-.21,2.36s-1.93,1.66-1.29,3.22c.49,1.19.82,2.5-1.22,2.72-.25,0-.51.76-.6,1.21a5.24,5.24,0,0,1-1.75,3.39c-.71.57-.88,1.78-1.54,2.46A45.09,45.09,0,0,1,67,69.26c-1.67,1.2-3.29,2.3-4.3,4.12a12.54,12.54,0,0,0-.52,1.21,4.41,4.41,0,0,1-.68-1.1c-.18-.7-.66-1.29-1.09-.54-1.14,2-2.93,1.9-4.78,1.94-.89,0-1.43.35-1.1,1.42a3.33,3.33,0,0,1-.13,1.25c-.44-.15-1.07-.16-1.28-.47-.69-1-1.7-1.11-2.32-.38C49.38,78.38,47.63,77.9,45.93,77.91ZM54.47,30.7a15.8,15.8,0,0,0-1-4,53.71,53.71,0,0,0-3.83-5.41c-.12-.17-.5-.38-.58-.32-1.16.87-2-.35-2.9-.43a9.69,9.69,0,0,0-3.55.52c-2.21.7-2.9,2.9-4.25,4.48-2,2.32-1.41,5.09-.71,7.27a8.69,8.69,0,0,0,5.3,5.49A8.44,8.44,0,0,0,54.47,30.7ZM37.71,79.33a6.55,6.55,0,0,0,2-.61,1.65,1.65,0,0,0-.15-1.53c-.59-.39-1.69-.81-2.1-.53-1.06.74-1.6.26-2.28-.41a2.78,2.78,0,0,0-1-.7,7.66,7.66,0,0,0-1.52-.19,4.2,4.2,0,0,0,.37,1.52A5.14,5.14,0,0,0,37.71,79.33Zm-9.42-6-.72,1.27c1.07.52,2.13,1.05,3.22,1.52.08,0,.36-.38.55-.59Z"/>
        <path class="cls-2" d="M29.89,61.53c.07-2.62-.37-4.69,1.2-6.34a.75.75,0,0,0,.12-.47c0-4.09,2.78-6.91,4.78-10a7.16,7.16,0,0,1,2.58-1.79c1.27-.73,2.58-1.38,3.9-2a1.58,1.58,0,0,1,1-.08c5.67,1.35,11.07,2.94,13.7,9.1.62,1.46.68,3.15,1.43,4.28,2,3,1.05,6.21,1.59,9.28a1.34,1.34,0,0,1-.26,1.1c-2.2,1.52-3.57,3.91-6.36,4.94A48.33,48.33,0,0,1,44,71.77c-1,.15-2-.41-3-.66a5.63,5.63,0,0,0-1.16-.37c-2.37,0-4.15-1.31-5.87-2.72a1.94,1.94,0,0,0-.42-.27C30.48,66.4,29,64.23,29.89,61.53Z"/>
        <path class="cls-2" d="M45.93,77.91c1.7,0,3.45.47,4.85-1.19.62-.74,1.62-.63,2.32.38.21.31.84.32,1.28.47a3.33,3.33,0,0,0,.13-1.25c-.33-1.07.21-1.4,1.1-1.42,1.84,0,3.64.05,4.78-1.94.43-.75.91-.16,1.09.54a4.41,4.41,0,0,0,.68,1.1,12.54,12.54,0,0,1,.52-1.21c1-1.82,2.63-2.92,4.3-4.12a45.09,45.09,0,0,0,5.8-5.44c.66-.68.83-1.89,1.54-2.46A5.24,5.24,0,0,0,76.06,58c.09-.44.35-1.18.6-1.21,2-.23,1.71-1.53,1.22-2.72-.64-1.56.59-2.35,1.29-3.22s.88-1.4.21-2.36a3,3,0,0,1-.62-2.29c1.11-2.74.26-5.46-.35-8a45.62,45.62,0,0,0-4.28-11.4,19.76,19.76,0,0,0-4.33-5.56,43.83,43.83,0,0,0-10.48-6.74c-1.74-.74-3.43-1.6-5.17-2.35a5.36,5.36,0,0,0-1.91-.44c-2.15-.06-4.33.17-6.45-.1a15.32,15.32,0,0,0-6.69.17c-1.79.53-3.48.72-5,2a24.57,24.57,0,0,1-4,2.21,13.88,13.88,0,0,0-3.41,2.2c-2,2.18-3.57,4.77-5.68,6.83-2.65,2.59-3.31,6.18-5.18,9.14a5.53,5.53,0,0,0-.33,1.44c-.5,1.8-1,3.6-1.55,5.38-.08.25-.54.62-.67.56-.32-.13-.79-.5-.77-.74.18-2.44-.53-4.94,1-7.28a24.72,24.72,0,0,0,1.89-4.75A32.83,32.83,0,0,1,21.89,19c3.4-3.88,7.92-6.12,12.4-8.27A25.84,25.84,0,0,1,46.72,7.92c2.55.13,5.29.13,7.55,1.09a22.64,22.64,0,0,0,6.33,1.33A6.65,6.65,0,0,1,64,12c3.71,3.4,8.48,5.64,11.24,10.08q3.15,5.07,6,10.3a5.57,5.57,0,0,1,.22,2.44q.06,3.58.07,7.16,0,5.48,0,11a2.39,2.39,0,0,1-.12,1C79.67,57.57,78,61.26,75.5,64.4s-5.36,6.43-8,9.68c-.27.34-.14,1-.34,1.41s-.53.7-.79.69a7.7,7.7,0,0,0-4.73,1.26,3.75,3.75,0,0,1-1.8.66A9.45,9.45,0,0,0,54,80.26a2.36,2.36,0,0,1-1.39.39c-2.75,0-5.5,0-8.24,0-.41,0-1,0-1.2-.19a9.68,9.68,0,0,1-1.1-1.73,4.57,4.57,0,0,1,1.37-.75A16.47,16.47,0,0,1,45.93,77.91Z"/>
        <path class="cls-2" d="M54.47,30.7A8.44,8.44,0,0,1,42.92,38.3a8.69,8.69,0,0,1-5.3-5.49c-.7-2.18-1.27-5,.71-7.27,1.35-1.58,2-3.79,4.25-4.48a9.69,9.69,0,0,1,3.55-.52c.95.07,1.75,1.29,2.9.43.07-.06.45.15.58.32a53.71,53.71,0,0,1,3.83,5.41A15.8,15.8,0,0,1,54.47,30.7Z"/>
        <path class="cls-2" d="M37.71,79.33a5.14,5.14,0,0,1-4.65-2.44,4.2,4.2,0,0,1-.37-1.52,7.66,7.66,0,0,1,1.52.19,2.78,2.78,0,0,1,1,.7c.68.66,1.22,1.14,2.28.41.41-.28,1.5.14,2.1.53a1.65,1.65,0,0,1,.15,1.53A6.55,6.55,0,0,1,37.71,79.33Z"/>
        <path class="cls-2" d="M28.28,73.28l3.06,2.2c-.19.21-.47.63-.55.59-1.09-.47-2.15-1-3.22-1.52Z"/>
      </g>
    </g>
  </g>
</svg>
